<svg id="Layer_1" data-name="Layer 1" xmlns="http://www.w3.org/2000/svg" viewBox="0 0 418.26 448.84"><defs><style>.cls-1{fill:#e58d00;}.cls-2{fill:#ff15a0;}.cls-3{fill:#77cae0;}.cls-4{fill:#fff;}.cls-5{fill:#595959;}.cls-6{fill:#ce8e00;}.cls-7{fill:#1bdb00;}.cls-8{fill:#bcbcbc;}.cls-9{fill:#ffb031;}.cls-10{fill:#ff7a17;}.cls-11{fill:#efd35e;}.cls-12{fill:#ffe600;}.cls-13{fill:#ffe31a;}.cls-14{fill:#afff99;}.cls-15{fill:#e569ff;}.cls-16{fill:#fdffb8;}.cls-17{fill:#ff6c6c;}.cls-18{fill:#fce560;}</style></defs><title>seniors</title><path class="cls-1" d="M349.21,361.34c-1.11-4.33-2.68-8.38-3.34-12.83a78.94,78.94,0,0,1-.32-14.91,1.55,1.55,0,0,1-.48-1.14c-.3-13.76-1.56-27.48-2.33-41.22a1.74,1.74,0,0,1-.22-.71c0-.36-.08-.73-.11-1.09-2.45-7-2-14.39-1.46-21.76-.24-.89-.5-1.78-.76-2.69-2-7.14-5.16-13.23-12.85-15.52-6.75-2-12.34,1.53-16.6,6.57-5.26,6.23-6.14,11.58-6,19.54.09,5.61,8.37,6.59,8.87.75.17-2.05.32-7.54,1.51-9.28a27.62,27.62,0,0,1,2.84-3.27,8,8,0,0,1,.93-2.39,1.64,1.64,0,0,1,1.83-2,6.22,6.22,0,0,1,1-.59c2.39-1.13,4.66.2,5.63,2.45a2.09,2.09,0,0,1,0,1.46,7.56,7.56,0,0,1,1.71,3.86c.63,1.73,1.13,3.49,1.55,4.85,1.59,5.17.71,10.63,2.23,15.89.83,2.86.17,6.8.17,9.75a78.08,78.08,0,0,0,.54,8.51c.59,5.48-.05,11,.42,16.52.53,6.3,1.49,12.71,2.21,19a118.6,118.6,0,0,0,2.66,15.72c1.11,4.33,2.61,9.11,2.94,13.68a4.39,4.39,0,0,0,.37,3.57l6.28-3.13a69,69,0,0,1,1-8.37A10.63,10.63,0,0,0,349.21,361.34Z"/><path d="M347.77,354c-.74-6.4-1-12.85-1.47-19.28-.58-7.36-1.71-14.7-2.49-22.05-1.48-14.05-1.76-28.25-1.93-42.37-.12-9.84-1.43-20.41-11.95-24.06-9.17-3.18-18.72,3.29-23.4,10.85-4,6.51-5.1,17.56.09,23.66,2.32,2.74,6,2.54,8.73.72,2.57-1.71,2.71-5.89,2.6-8.57-.14-3.53-2.26-10.77,1.43-13.15,2.95-1.9,7.15,1.57,8.78,3.77,1.94,2.62,1.93,6.37,1.84,9.44-.17,6.16-1,12.11-.6,18.3.27,3.95,1,7.83,1.31,11.79.63,8.76,2.56,17.26,3.25,26,.92,11.63,1.2,23.16,3.85,34.58.8,3.4,1,7.76,4.2,9.91a4.26,4.26,0,0,0,5.78-1.36c3-4.62,1.14-13.25,0-18.22-.57-2.44-4.13,0-3.68,1.94a52.35,52.35,0,0,1,1.29,10.72c0,.88,0,1.75-.11,2.62-.15,1.89-.8.91.56.88-3.14.08-3.56-4.59-3.94-6.84-1.06-6.15-2.6-12.06-3.08-18.32-.45-5.94-.68-11.9-1.16-17.84-.74-9.08-2.67-17.86-3.32-26.91-.26-3.68-.89-7.26-1.25-10.93-.67-6.85,1-13.52.65-20.32-.21-4.46-1.4-8.24-4.89-11.16a9.12,9.12,0,0,0-10.88-1c-7,4.49-3.22,13.81-3.82,20.38-.43,4.67-5.43-.74-6.2-2.19-1.19-2.27-.95-5.57-.84-8a19,19,0,0,1,9.75-15.75c5.35-3.18,12-1.88,16.46,2.1,5,4.49,4.79,13.26,4.87,19.4.16,13.39.47,26.84,1.78,40.17.72,7.41,1.76,14.77,2.51,22.18.71,6.94.81,13.93,1.62,20.87C344.37,358.38,348,355.93,347.77,354Z"/><path class="cls-2" d="M220.13,261.43a1.61,1.61,0,0,1,.71-2.71A22,22,0,0,1,220,253c-.69,3.23-1.67,6.51-1.05,9.69.36,1.84,2.14,1.41,3.37.26A13.49,13.49,0,0,1,220.13,261.43Z"/><path class="cls-2" d="M228.07,201.4a8.39,8.39,0,0,0-.27,1.58c-.43,2.16-.71,4-1,4.69-1.34,4-1.76,8.43-2.18,12.56-.5,4.91-1.41,9.89-2,14.8,0,.29-.09.58-.13.87a18.24,18.24,0,0,0-1.4,7C223.81,229.25,228.4,215.41,228.07,201.4Z"/><path class="cls-3" d="M289.9,257.88c-.72-4.18-1.9-8.23-2.73-12.38,0-.07-.05-.12-.07-.19a17.38,17.38,0,0,0-.48-5.48c-.23-5.58-.18-11.2-1.09-16.75a135.88,135.88,0,0,1-1.95-15.58c-.05-.88-.15-1.76-.28-2.64a10.72,10.72,0,0,1,.4-1.09,5.58,5.58,0,0,0,2.17-4.59v-.73a5.33,5.33,0,0,0-1.55-3.68c.94-1.42,1.07-3.28-.82-3.28a2.14,2.14,0,0,0-.43.07c.6-2.87-3.59-1.93-4.42.44l-.27.82s0,.05,0,.08a4.77,4.77,0,0,0-2.73,1.8c-4.38,5.79-4,13.4-7.4,20.05-.08-.14-.17-.28-.24-.42a1.74,1.74,0,0,0-.46-2.09c-.55-.42-1.07-.81-1.57-1.21a23.24,23.24,0,0,0-4.27-5,1.61,1.61,0,0,0-1-.37,6.15,6.15,0,0,0-3.56-3.39,2.44,2.44,0,0,0,.25-1,2.78,2.78,0,0,0-1.06-2.31c-.56-.56-1.53-.32-2.14,0-2.56,1.27-3.57,4.73-4.41,8a5.63,5.63,0,0,0-3.34,2.87,6.3,6.3,0,0,0-.49,1.23c-.23.34-.47.67-.71,1-.81-4-2.63-7.68-3.18-11.79-.61-4.57-1.51-6.32-5.7-8.7-2.53-1.45-4.35-.17-5.68,2.19,1.91,12.73-.89,26.21-3.55,38.64-1.77,8.3-6.09,17.87-2.79,26.37.09.23.2.42.3.63,9.74,2,19.83,1.34,29.54,3.69a1.44,1.44,0,0,1,1.17,1.42c2.86.17,5.42-.69,8.27-.69a23.5,23.5,0,0,0,2.81-.14,6.53,6.53,0,0,0,3.27,1.16,7.08,7.08,0,0,0,6.23,3.48,7.68,7.68,0,0,0,2.88-.75,5.37,5.37,0,0,0,4.55-1.52,4.74,4.74,0,0,0,6.31-1.15C291.4,262.94,290.28,260.08,289.9,257.88Z"/><path class="cls-4" d="M253.5,193.11c.07-3.1-3.47-5.47-6.24-3.8s-3.35,6.64-3.63,9.73c-.2,2.21-.26,5.27,1.34,7,2,2.2,6.47,2.32,7.48-1.08a34.49,34.49,0,0,0,1-7.62,3.49,3.49,0,0,0-.33-1.77A14,14,0,0,0,253.5,193.11Z"/><path class="cls-4" d="M269.41,189a5.56,5.56,0,0,0-5.35,2.56,4.74,4.74,0,0,0-3.5.13c-2.81,1.2-3.52,4.09-2.72,6.78a23.63,23.63,0,0,0,1.78,4.62,50.26,50.26,0,0,0,3.31,4.65c.1-.25.19-.5.28-.75a8.17,8.17,0,0,0,1.3,1.33c3.11,2.49,9,.54,9.07-3.83,0-1.49,0-3,.09-4.48a31.85,31.85,0,0,1,.8-4.75C275,192.18,272.31,189.28,269.41,189Z"/><path class="cls-5" d="M238.41,365.45a18.24,18.24,0,0,0-7-6.2,3.76,3.76,0,0,1-1-.07c-4.26-1.08-8.62-.79-13-.76-5.72,0-7.32,6.57-5.14,10.72a8.8,8.8,0,0,0,1.5,2c1.89.48,3.76,1,5.62,1.62,4.93-.44,12.54-1.13,17.33-3.24C237.28,368.18,237.84,366.81,238.41,365.45Z"/><path class="cls-5" d="M291.55,358.88a23.69,23.69,0,0,0-13.68-.16c-4.72,1.27-10.16,5.8-7.41,11.3,1.22,2.42,3.53,4.55,6.5,4.06a19.86,19.86,0,0,0,3.81-1,5.62,5.62,0,0,0,1.77.54,14.56,14.56,0,0,0,10.37-2.28C297.54,368,297.66,360.74,291.55,358.88Z"/><path class="cls-6" d="M285.07,329.2c-.66-8.95-.78-17.92-1.26-26.88-.44-8.33-4.2-16.38-1.81-24.57,3.17-10.79-7-10.46-14.12-12.61a1.64,1.64,0,0,1-1-2.32l-.85-.05c-11.79-.85-23.24,1.18-34.9,1.39a6.41,6.41,0,0,0-2.06.42,31.65,31.65,0,0,1,9.45-.21c1.64-.18,3.3-.34,4.92-.57a1.71,1.71,0,0,1,1.58.6c1.39,0,2.73.06,4,.07,1.79,0,2.31,2.93.43,3.22l-.43.06h0a34.82,34.82,0,0,1-7.18-.12,46.7,46.7,0,0,0-6.82.44c-4.36.83-8.22,2.61-9.52,7.52a89.45,89.45,0,0,0-2.58,24.84,48,48,0,0,1,.45,7.07c-.23,7.42-2,15.26-3.34,22.54-1,5.28.26,12.23,4.18,16.1.09.09.18.16.27.24a1.57,1.57,0,0,1,1.22-.61c4.7,0,9.43-.45,14.14-.53a1.64,1.64,0,0,1,1.18-2.75c6.18.16,11.51-4.3,10.75-10.75-.25-2.1,3-2.08,3.28,0,.8,6.77-4,12.07-10.08,13.59a43.78,43.78,0,0,1,5,.49c1.91-.07,3.79,0,5.47,0,6,.08,11.72.33,17.58-1,1.2-.29,2.31-.56,3.39-.84a1.41,1.41,0,0,1,1-2.11c3.24-.55,8.08-1.19,8.19-5.39C285.61,334,285.24,331.62,285.07,329.2Z"/><path class="cls-7" d="M222.37,278.18a.12.12,0,0,1,0-.05A.09.09,0,0,0,222.37,278.18Z"/><path d="M228.33,190.44c-2,13.79-5.11,27.38-7.55,41.09-1.18,6.62-2.12,13.26-2.75,19.95-.34,3.59-2.1,10.32.47,13.39,2,2.38,7.29,1.47,9.89,1.31,7-.43,14.26.24,21.28.28s13.78.1,20.66.3c3.36.1,7.36-.24,10.64.6a44.07,44.07,0,0,0,6.74,1.3c9.84.93,5.53-14,4.84-19.09-.9-6.62-2.2-13.19-3.42-19.76-1.36-7.33-3.29-15.1-3.29-22.59v-8.83c0-2.34.93-4.64.58-7-.59-4-3.17-5.4-7-6s-7.92.35-11.66,1c-6.21,1.1-12.87.6-19.18.93-3.8.2-7.68.72-11.48.67-2.72,0-5.16-.91-7.78.16-2,.84-2.08,4.56.62,3.46,1.34-.55,3.46.09,4.83.25a43,43,0,0,0,7.68-.3c6-.37,12.06-.65,18.11-.75a98.75,98.75,0,0,0,11.36-1.3,29.6,29.6,0,0,1,6.24-.17c3.72.31,4.77,2.51,4.42,6.14-1.11,11.76.43,23,2.55,34.57.52,2.84,6.53,34.39,4.83,34.59-2,.24-4.1-.47-6-.94a37.2,37.2,0,0,0-7.23-.76c-6.88-.33-13.77-.41-20.65-.47-6.32,0-12.63-.07-18.94-.17-4.56-.07-10.24.79-14.7-.32-3-.75-.63-12.58-.39-14.91.69-6.67,1.81-13.29,3-19.89,2.29-12.61,5.1-25.11,7-37.8.39-2.7-3.44-.95-3.72,1Z"/><path d="M255.33,191c-1.6,3.73-3.9,7.09-5.75,10.69s-2.15,8-4.25,11.4l3.37-.46a36.23,36.23,0,0,0-2.08-8.87c-1-2.93-2.91-6.37-1.77-9.52,1-2.75-2.77-2-3.51,0-2.35,6.48,3.13,13.87,3.68,20.34.18,2.12,2.84.42,3.38-.46,2.13-3.48,2.52-7.7,4.24-11.4,1.88-4,4.45-7.62,6.2-11.7,1.15-2.68-2.68-2-3.51,0Z"/><path d="M252.69,195.62c3.91,7.08,11.16,11.72,15.07,18.83.95,1.73,3-.32,3.45-1.37,1.57-4,2.13-8.25,3.23-12.38.78-2.93,2-6,1.78-9.08-.11-1.36-1.91-1.11-2.61-.45l-.62.57c-1.76,1.65-.61,4.86,1.54,2.85l.62-.58-2.61-.45c.24,3-1.51,6.56-2.2,9.51a73.6,73.6,0,0,1-2.64,10l3.46-1.38c-3.91-7.12-11.17-11.76-15.07-18.83-1.09-2-4.36,1-3.4,2.76Z"/><path d="M220.26,267.37c-.76,13.38-1.5,26.76-1.32,40.16.09,6.92.79,13.79,1,20.69.19,6.25.07,12.48.86,18.7a1.19,1.19,0,0,0,1.21,1c4.57,0,9.13.14,13.69.21,4.08.07,9.28.74,13.24-.37,6.34-1.76,5.78-8.8,6.1-14.15.25-4.32.11-8.49.81-12.78a108.61,108.61,0,0,0,1.7-14.5c.16-5.22.11-10.43.63-15.64.46-4.75,1.63-9.4,2.37-14.11.42-2.69-3.42-.95-3.72,1-1.2,7.65-2.67,15-2.87,22.8a168.46,168.46,0,0,1-2.08,23c-.61,3.72-.41,7.48-.56,11.23-.09,2.38.55,9.09-2.75,9.36-8.4.67-16.89,0-25.29,0l1.21,1c-.83-6.44-.69-12.93-.89-19.4s-.83-12.68-1-19.05c-.27-13.39.55-26.79,1.32-40.16.15-2.75-3.61-1-3.72,1Z"/><path d="M254.3,346.85c3.54.48,7.73-.76,11.28-1,5.73-.36,11.52-.19,17.23-.89a20.46,20.46,0,0,0,8.94-3c2.51-1.77,1.14-5.76.62-8.06-2.65-11.68-1.9-24.31-1.71-36.17.08-5.35-1-10.5-1.77-15.78-.39-2.76-2.3-10.09-.68-12.44s-1.71-3-3.07-1-1.08,4.81-.86,7.17c.34,3.77.81,7.56,1.39,11.3,1.64,10.68.77,21.2,1.22,32,.23,5.38,1.11,10.79,1.71,16.14.11,1,1.51,4.23.1,4.7a31.79,31.79,0,0,1-6.23,1.43c-5.13.63-10.46.49-15.62.69-3.6.15-7.71,1.48-11.28,1-1.94-.26-3.77,3.62-1.27,4Z"/><path d="M232,348.06c1.52,4.39,1.46,9.06,1.46,13.65,0,2.75,3.72,1,3.72-1,0-5.25,0-10.39-1.78-15.41-.71-2-4,.89-3.4,2.76Z"/><path d="M234.48,359.1c-7.24-2.57-16.22-4.79-22.64.63-5.39,4.55-1.83,11.16,4.09,12.6,3.42.82,7.15.17,10.6-.11,2.75-.22,5.13,0,7.78-1,5.28-2,7.45-6.77,3.72-11.27-1.28-1.55-4.22,1.79-2.86,3.42,3,3.64-2,4.86-4.79,4.89-3.13,0-6.24.42-9.38.48a13.67,13.67,0,0,1-5-.82c-4.79-1.72-2.15-6.43,1.57-7.46,4.39-1.21,10.63,1,14.76,2.5,1.88.66,4.27-3.07,2.13-3.83Z"/><path d="M268.83,345.71c.69,1.35-.18,3.32-.08,4.82.14,2,1.54,4,1.54,6,0,1.65-.46,5,1,6.18,1.62,1.35,4.49-2.07,2.87-3.42-.3-.24-.1-2.77-.11-3.19a16.85,16.85,0,0,0-.88-4.65,7.32,7.32,0,0,1-.3-4.57,5.15,5.15,0,0,0-.6-3.94c-1-2-4.3,1-3.4,2.76Z"/><path d="M274.61,363.82c4.14-2.12,13.7-4.16,17.26.22,1.37,1.69-.13,4.22-1.85,4.9a14.82,14.82,0,0,1-4.62.82c-2.13.13-16.51-1.41-11.94-5.71,1.75-1.66.6-4.87-1.55-2.85-3.15,3-4.71,7.15-.45,9.9,4.43,2.86,10.82,3,15.86,2.28s10-5.45,8.45-11c-1-3.42-5.24-4.06-8.2-4.52A22.78,22.78,0,0,0,274,360.36c-1.93,1-2,4.79.62,3.46Z"/><path d="M247.75,274.31c5.75,1.77,13.83,4.65,19.06.33,1.89-1.56.73-4.72-1.54-2.84-3.68,3-11.39-.08-15.39-1.32-1.92-.59-4.28,3.17-2.13,3.83Z"/><path d="M283.11,195.26c5.9,7.14,8.65,17,12.8,25.19,2.34,4.63,5.1,9.05,7.81,13.47,2.43,4,3.39,8.8,6.37,12.38,1.29,1.56,4.23-1.78,2.87-3.41-1.71-2-2.54-4.76-3.24-7.28-.54-2-2.35-4-3.41-5.78-2.72-4.44-5.37-8.92-7.73-13.57-4.1-8.1-6.76-17.34-12.6-24.41-1.29-1.56-4.22,1.77-2.87,3.41Z"/><path class="cls-4" d="M321,242.59c-2.74-1.09-8.76-1.09-10.4,1.64v.55c-4.37,1.64-10.39.54-11.48,6.56-1.34,6.26,7.9,8.13,10.74,4.73.57,2.71,3.08,6,4.57,6.76,4.92,2.18,10.39-3.29,11.49-7.66C327,251.34,324.83,244.23,321,242.59Z"/><path d="M322.07,240.68c-3.73-1.25-13.32-1.28-13.32,4.6.68-.81,1.36-1.61,2-2.42-6.49,2.14-13.94,2.35-13.58,11.28.27,6.87,10.34,6.42,13.86,2.93l-3,0c1,3.17,3.12,7.64,6.85,8.12,4.28.56,7.77-2,10.36-5.17,4.6-5.65,3.48-15.7-3.16-19.31-1.72-.94-4.15,2.72-2.13,3.82,3.79,2.07,5.39,8.27,3.73,12.07a7.84,7.84,0,0,1-6.47,4.77c-2.92.16-4.83-4-5.49-6.24-.5-1.66-2.16-.9-3,0-2.33,2.3-7.18-.17-7.79-2.87-1-4.55,6.86-4.62,9.57-5.5a2.88,2.88,0,0,0,2-2.42c0-.78,6.42-.13,7.47.22C321.84,245.14,324.22,241.39,322.07,240.68Z"/><path d="M224.09,191.73c-4.4,11.53-8.77,23.09-14.11,34.22-2.27,4.73-3.77,9.81-5.59,14.71s-1.27,10.52-4.14,15.09c-1.57,2.5,1.78,3.08,3.07,1,2.23-3.56,2.83-7.62,3.47-11.71,1-6,3.77-12.5,6.25-18.09,5.19-11.64,10-23.34,14.56-35.25,1-2.73-2.75-2-3.51,0Z"/><path d="M205,256.81a8.05,8.05,0,0,1,6.71-2.57c3.76.64.71,8.83-2.64,4.78l-2.87,3.42a8,8,0,0,1,1,8.66c-1.47,3.07-5.83.6-7.45-.76a8.6,8.6,0,0,1-2.86-8.68c.91-3.34,5.73-4.2,8.31-5.77,1.82-1.1,1.88-5-.62-3.45-4.93,3-9.79,4-11.48,10.24-1.25,4.6,1.56,10.44,5.8,12.54,10.19,5.07,16.73-8.93,10.16-16.2-1.4-1.54-4.2,1.82-2.87,3.42,5.11,6.17,11.53-3.29,10.93-8.7-.33-3-4-3.85-6.42-3.41a14.35,14.35,0,0,0-8.1,4.48c-1.86,2.06.56,4,2.39,2Z"/><path class="cls-4" d="M209.26,164.13c-4-10,.08-29.17,5.52-38.88C220,115,230.15,107.08,241,103.45c21.92-6.71,50,6.22,59.88,26.07,22.72,45.78-33.79,81.74-69.39,59.86C220.72,183.1,213.68,175.26,209.26,164.13Z"/><path class="cls-8" d="M243,116.37a3.09,3.09,0,0,0-2.8,1.38c-1.63.68-3.1,1.67-4.86,2.22-2.51.79-5.57,1.24-7.72,2.75-1.61,1.13-1.56,3.12-.54,3.82a1.48,1.48,0,0,0,.55.84,4.2,4.2,0,0,0,3.12.74,4.33,4.33,0,0,0,1.15.06,23.5,23.5,0,0,0,3.3-.75,24,24,0,0,0,6.5-2.9C244,123.11,247.6,117.36,243,116.37Z"/><path class="cls-8" d="M276.88,120a1.45,1.45,0,0,0-1.31-.73l-.13,0a5.36,5.36,0,0,0-2-.26,27.65,27.65,0,0,1-6.89-2.37,11.94,11.94,0,0,0-1.72-.7c-2.34-1.8-5.77-2.9-7.86-.07-2.36,3.19-1.44,6.85,2.39,8.25a10.32,10.32,0,0,0,2.37.3,24.52,24.52,0,0,1,4.2,1.11,27.71,27.71,0,0,0,6.43.6C275.49,126.26,278.32,123,276.88,120Z"/><path d="M211,162.75c-3.58-9.85-.63-22.12,2.86-31.57,4.17-11.31,12.87-19.69,23.75-24.58,19.79-8.88,45.61,1.93,58,18.37,11.26,15,11.51,35.85-.12,50.55-10.46,13.2-28.19,19.8-44.73,18.17C233,191.94,217.57,178.86,211,162.75c-.83-2-4.15.91-3.4,2.76a52.56,52.56,0,0,0,41.87,32.14c15.63,1.87,32-4.28,43.41-14.82C304.61,172,310.14,156.3,307,140.56,303,121,287,107,268.32,101.68c-18.37-5.27-37,.56-49.55,14.83-6,6.77-9.3,15.57-11.3,24.24-1.83,8-2.76,16.92.09,24.76C208.31,167.55,211.64,164.61,211,162.75Z"/><path d="M243.86,142.3c-.14-.18-.17-.2-.08,0-.17-.36,0,0,0,.09l0,.29c0-.44,0,.08,0,.14l2.49-2.48a2.08,2.08,0,0,1-.35,0c-.22,0,.48.15.11,0l.26.15c-.11-.08-.22-.3.16.21-.16-.22.1.52.06.16,0,.4,0,.52,0,.35s.11-.42-.07.32c.1-.43-.23.46-.12.23,0-.08.09-.16.14-.24-.49.76-.25.35-.09.17s-.56.51-.17.18-.39.24-.19.12c.39-.23-.38.12-.18.06.41-.14-.46,0-.13,0,.17,0-.5-.14-.15,0-.49-.2-.23-.15-.07,0-.38-.42-.14-.16-.06,0s.12.39,0-.1a2.29,2.29,0,0,1,.07.28c.21-.66.43-1.32.64-2l.18-.18c.73-.64,1.63-.47,1-.46a2.77,2.77,0,0,0-2.39,2c-.28.88,0,2,1.12,2a3.37,3.37,0,0,0,3.17-2.82,3,3,0,0,0-.86-2.18c-1-1.06-2.62-.33-3.55.34a5,5,0,0,0-2,3.2,1.87,1.87,0,0,0,2.19,2.13,2.79,2.79,0,0,0,2.49-2.48,4,4,0,0,0-.76-2.89,1.33,1.33,0,0,0-1.26-.21,2.73,2.73,0,0,0-1.37.91,2.06,2.06,0,0,0-.24,2.71Z"/><path d="M258.59,139.59l.09-.09-.12.09a1.44,1.44,0,0,1,.85-.3l1.06.6a2,2,0,0,1-.14-.25c.18.37.07.27,0,.09a1.43,1.43,0,0,1-.42,1.21c.21-.28-.48.43-.22.21-.36.23-.46.29-.28.19s.08-.05-.28.1c.15-.05.4,0-.2,0,.37,0-.34-.1-.11,0s-.35-.25-.14-.07-.23-.35-.08-.08l0,.07a.72.72,0,0,1-.08-.5q.12-.5,0-.21A1.68,1.68,0,0,1,259,140l-.07.07a1.81,1.81,0,0,1,.61-.49q-.27.13.24-.09c-.18,0-.1,0,.23,0l.28.05c-.16-.06-.1,0,.16.1-.12-.1-.09-.06.1.14a1.11,1.11,0,0,1-.09-.19c-.4-1-1.88-.52-2.47,0a2.51,2.51,0,0,0-.93,2.8c.64,1.64,2.75,1.15,3.78.24,1.22-1.08,2.23-3.36.69-4.64-1-.83-2.61-.31-3.46.49-1.09,1-2,2.83-1,4.25a1.2,1.2,0,0,0,1.07.6A4.59,4.59,0,0,0,261,141.6c.63-.63,1-2,.24-2.71s-2,.07-2.63.7Z"/><path d="M232.63,128c-1.56.18-2.87,0-3.81-1.39-.65-.93-1.12-3.13-.12-4,1.68-1.46,4.08-1.6,6-2.45,2.53-1.09,4.65-2.23,7.44-2.56,3.57-.43,2,4,.54,5.37-2.82,2.62-7.14,4.31-10.85,5-2,.39-3.05,4.37-.34,3.84,5.55-1.09,12.21-4.09,15.24-9.1,2.21-3.66,2-9.18-3.33-9.11-3.84.06-6.86,2.28-10.43,3.33-2.94.87-6.26,2.28-7.75,5.12-2.47,4.69.62,10.5,6.1,9.88,1.91-.21,3.68-4.23,1.27-4Z"/><path d="M264.48,123.58a19.22,19.22,0,0,1-3.56-1c-2.83-1.1-5.14-5.55-.5-6.13,3.22-.4,6.74,1.52,9.59,2.76,2.25,1,5.15,1.5,6.65,3.62s-5.84,2-6.44,2a30.54,30.54,0,0,1-5.74-1.21c-1.92-.53-4.28,3.23-2.12,3.83,4.95,1.37,14.55,3.47,17.4-2.74,2.58-5.62-3.32-7.64-7.62-9.29-4.8-1.85-12.43-5.53-16.4,0-4.38,6.13.13,10.84,6.62,12,1.95.35,4.27-3.45,2.12-3.83Z"/><path d="M288.68,115.56a61.27,61.27,0,0,1,17.16-13c1.93-1,2-4.79-.62-3.45a67.74,67.74,0,0,0-18.93,14.39c-1.88,2,.53,4,2.39,2Z"/><path d="M292.78,121.4c5.73-1.91,10.17-6.3,15.86-8.21,1.87-.62,2.92-4.7.34-3.83-5.73,1.91-10.16,6.3-15.86,8.2-1.87.63-2.92,4.7-.34,3.84Z"/><path d="M299.54,125.22c4.19,1.13,8-1.37,11.77-2.92,2-.85,2.07-4.58-.62-3.46s-5.94,3.38-9,2.55c-1.93-.52-4.28,3.25-2.13,3.83Z"/><path d="M219.64,118.11c-7.5-1.35-13.29-6.85-20.78-8.2-2-.35-4.27,3.44-2.13,3.83,7.49,1.35,13.28,6.85,20.78,8.2,2,.35,4.27-3.44,2.13-3.83Z"/><path d="M216.55,122.48c-2.82.8-5.66-.46-8.4-1.09s-5.4-1.62-8.2-2.18c-1.95-.4-4.28,3.39-2.13,3.82,5.67,1.15,12.58,4.93,18.4,3.29,1.91-.54,3-4.58.33-3.84Z"/><path d="M212.18,128.5a66.66,66.66,0,0,1-13.75,1c-2,0-3.76,4-1.27,4a70.79,70.79,0,0,0,14.68-1.16c2-.41,3-4.39.34-3.83Z"/><path d="M215.64,152.17c2.22,17.78,26.61,21.48,40.92,21.45,9.36,0,20.71-1,29-5.61,3.61-2,5.94-5.18,8.51-8.29,2.37-2.86,5.2-6.18,5.1-10.11-.08-2.76-3.78-1-3.72,1,.09,3.48-3.19,6.39-5.24,8.91a20.1,20.1,0,0,1-9.25,6.86c-8.14,2.91-17.75,3.42-26.31,3.26-12.39-.22-33.47-4.32-35.35-19.4-.3-2.45-3.92,0-3.68,1.94Z"/><path d="M252.82,151.13c0-.12-.09-.23-.14-.35-.11-2.28-3.72-.23-3.7,1.46,0,2.28.15,4.74,1.58,6.63s3.91,2.24,6.13,1.9c5.5-.84,8-5.26,7.48-10.54-.25-2.44-3.88,0-3.69,1.94.34,3.29-.87,4.73-4.24,4.76-3.09,0-3.51-3.29-3.54-5.68l-3.7,1.46a2.68,2.68,0,0,0,.95,1.84c1.42,1.49,4.33-1.88,2.87-3.42Z"/><path d="M239.3,159.14a4,4,0,0,1,.25,1.06c0-.24,0,.36,0,.44.05-.24.05-.25,0,0a2,2,0,0,1,.3-.55c-.58.67-1.06,2-.24,2.71s2.05,0,2.63-.7a5.34,5.34,0,0,0,.51-5.67c-.47-1-1.84-.55-2.48,0a2.46,2.46,0,0,0-.92,2.8Z"/><path d="M233,153.3c-1.54.82-2.43,2.25-3.62,3.46-.62.63-1,2-.24,2.71s2-.07,2.63-.71c.45-.45.85-.94,1.26-1.44.09-.11.73-.76.26-.31l.24-.21c.42-.34-.39.21.09,0a2.79,2.79,0,0,0,1.53-2.7c-.19-1.07-1.33-1.2-2.15-.76Z"/><path d="M226.32,148.67a5.77,5.77,0,0,0-4,2.07c-.63.63-1,2-.24,2.71s2-.07,2.63-.7c.28-.28-.46.43,0,0,.12-.11.56-.42,0,0,.12-.08.6-.26,0-.06l.25-.07c-.44.11,0,0,.1,0a2.77,2.77,0,0,0,2.39-2c.27-.86,0-2-1.12-2Z"/><path d="M270.47,158.6a7,7,0,0,0,3.37,2.72c1,.48,2.19-.67,2.6-1.4a1.64,1.64,0,0,0-.47-2.43l-.74-.38c.13.07.11.06-.06,0a3.51,3.51,0,0,1-.4-.27,4.23,4.23,0,0,1-.61-.51c-.13-.14-.14-.15,0,0a3.45,3.45,0,0,1-.25-.41c-.52-1-1.8-.59-2.47-.05s-1.45,1.84-.93,2.81Z"/><path d="M279.19,154.82a4.22,4.22,0,0,1,1.8.79,5.52,5.52,0,0,0,2.58.85c1.95.1,3.77-3.84,1.26-4a4.23,4.23,0,0,1-1.79-.79,5.52,5.52,0,0,0-2.58-.85c-1.95-.1-3.77,3.84-1.27,4Z"/><path d="M288.49,149.35a3.27,3.27,0,0,1,1.42.28c.09,0,.67.34.46.22.32.18.64.36,1,.53,1,.49,2.19-.67,2.6-1.4a1.64,1.64,0,0,0-.47-2.43l-.31-.16-.15-.08c.21.11.11.06-.28-.16a6.53,6.53,0,0,0-.7-.35,5.68,5.68,0,0,0-2.27-.41,2.76,2.76,0,0,0-2.39,2c-.29.89,0,2,1.12,2Z"/><path d="M242.12,179.91c5.38,2.48,11.09,3.18,17,3.34,3.37.09,8,.36,10.58-2.19,1.71-1.68.56-4.91-1.54-2.84-1.86,1.82-6.94,1.09-9.3,1a36.66,36.66,0,0,1-14.57-3.16c-1.8-.82-4.21,2.87-2.13,3.83Z"/><path class="cls-9" d="M164.31,277.2c8-.07,9.27-6.78,8.73-13.78l-.24-.31c0-.92-.06-1.85-.1-2.77-.18-1.32-.4-2.62-.63-3.85l-.15-.34s0-.1.05-.15c-.29-1.55-.59-3-.82-4.19a1.31,1.31,0,0,1,1.18-1.63c-.26-1.75-.72-3.56-1-5.42-1-6.11-2.81-12.12-2.92-18.24a7.36,7.36,0,0,0,.13-1.91c0-.49-.07-1-.1-1.46-.24-3.85-3.78-5.81-7.09-5.68a10.85,10.85,0,0,0-1-1.12c-1.7-1.56-3.7,1.66-3.86,3a4.57,4.57,0,0,1-.18.85,5.46,5.46,0,0,0-.46,1,5.67,5.67,0,0,1-3.4,2.33c.05-1.19-.54-2.21-2.07-1.65-2,.72-3.7,1.85-5.68,2.56a3.58,3.58,0,0,0-1.52,1.43,1.55,1.55,0,0,0-1-.89c-2-.68-4.32-1.86-6.47-1.49a5,5,0,0,0-2.83,2.59,17.29,17.29,0,0,1-3.87-.55l-.38-.28a3,3,0,0,0-1.33-.42c2-2.12.32-5.75-2.21-3.25-2.22,2.2-7.19,2.56-8.71-.84-.74-1.66-2.89-.32-3.8,1.28a2.71,2.71,0,0,1-.06.38c-1.67,6-.63,12.49-.78,18.65-.12,4.86-.5,9.71-.68,14.57-.16,4.22-1.49,19.16,4.31,20.75a12.59,12.59,0,0,0,1.28.13,1.71,1.71,0,0,1,1.67,1.46c.49,0,1,0,1.49,0a2.34,2.34,0,0,0,1.65-.78c5.12.09,10.25.17,15.32.54,2.11.16,4.29.47,6.5.82a7.63,7.63,0,0,0,1.23.32,8.59,8.59,0,0,0,1.4.11c6,1,12,2,17.32.79A1.57,1.57,0,0,1,164.31,277.2Z"/><path class="cls-4" d="M161.92,215.16c-1.52-2.81-3.13-5.91-7.26-6.32-2.7-.27-5.38-.34-7.77.68a12.6,12.6,0,0,0-3.8-1.92,8.66,8.66,0,0,0-6.83.79,14.59,14.59,0,0,0-9.63-2.72c-9.48.82-16.25,11.16-8.28,17.12a9.46,9.46,0,0,0,9.53.84c.29.26.6.51.94.76,3,2.19,7.18,1.44,10.49.52a7,7,0,0,0,1.73-.71,16.78,16.78,0,0,0,2.29.83,6.37,6.37,0,0,0,3.13,0,7.19,7.19,0,0,0,8.52-.48,10,10,0,0,0,1.71-.34C160.6,223,163.88,218.76,161.92,215.16Z"/><path class="cls-10" d="M119.51,366.16c-4.42-2.82-9.46-1.35-14.2-.33-2.77.59-5,2.32-5.45,5.3-.35,2.52,1.09,5.81,3.72,6.59l1.13.34,0,.33c.32,0,.63-.05.95-.08a7.77,7.77,0,0,0,3.54.16c1.49-.29,2.92-.78,4.4-1.11a6.65,6.65,0,0,0,.76-.23,6,6,0,0,0,6.39-2.23C122.65,372.35,122.38,368,119.51,366.16Z"/><path class="cls-10" d="M183.72,368.22c-4.58-2.85-12-1.1-16,2.1a6.63,6.63,0,0,0-2.53,6.11c.38,2.68,2.8,5.57,5.69,5.61a18.91,18.91,0,0,0,7.91-1.44,5,5,0,0,0,.52-.25,8,8,0,0,0,2.9-.43C187.33,378,188.74,371.33,183.72,368.22Z"/><path class="cls-11" d="M164.56,352.26c3.72,0,8,.5,11.62-.74,5.16-1.78,6.91-6.36,7.31-11.42.65-8.21-.36-16.79-1.29-24.94-.77-6.73-1.29-13.51-2.2-20.22-.63-4.61-1.85-14.79-8.66-13.33-2,.44-3.14-2.66-1.08-3.1a8.27,8.27,0,0,1,7.46,1.7,16.84,16.84,0,0,0-3.47-2.63,29.18,29.18,0,0,1-10.5,0c-.72.29-1.4.61-2,.93-2.93,1.47-7.81.9-11,1.1-7.35.49-14.72.15-22,.73-4.88.38-8.53-2.63-13.14-.89,0-.08-1.89,3-1.92,2.92-2-4.92-9.29-3.11-8,2.25.24,1.05.42,2.13.56,3.23a7.82,7.82,0,0,0-.54,1.48,94,94,0,0,0-2.56,11.5c-.37,3-.49,6-.67,9a1.54,1.54,0,0,1,.34,1c.16,10.82-4.48,24.46,1.61,34.33,4.47,7.27,12.41,9.06,20.34,10,2.6-.29,5.17-.68,7.56-1,5-.59,10.16-1,15.22-1.26,4.41-.22,8.66.66,13,.82a11.3,11.3,0,0,0,2.83.75A1.54,1.54,0,0,1,164.56,352.26Z"/><path d="M123.35,233.91c-.36,3.5-1.82,17.06,5.16,15.41,3.13-.74,5.2-3.25,6.43-6.08,1.58-3.66-.32-8,1.36-11.56,1.23-2.65-2-3.28-3.07-1-1.93,4.14-.51,8.4-1.81,12.58-.52,1.7-2.59,3-3.71,1.15a9.65,9.65,0,0,1-1-3.69,33.25,33.25,0,0,1,.32-7.78c.28-2.73-3.52-1-3.72,1Z"/><path d="M144.46,233.11c-1.7,4.66.78,14.31,6.63,14.71,3.38.23,5.84-3.18,6.31-6.15a17.15,17.15,0,0,0-1.37-9.39c-.91-2-4.22.94-3.4,2.76.67,1.5,2.69,10.87-1.3,8.51-2.75-1.62-4.43-7.5-3.36-10.43,1-2.75-2.78-2-3.51,0Z"/><path d="M111.17,212.6c-2.5,13.85-4.67,27.76-5.94,41.79-.53,5.92-.85,12-1,18-.15,4.56-.61,7.16,4.59,8.3,11.39,2.48,24.06,1.21,35.6.81,6.77-.24,13.54-.42,20.31-.33,4.19.06,7.87,1,11-2.5,2.53-2.83,2.59-6.34,2.32-9.95a177.09,177.09,0,0,0-3-19.7c-2-10.69-2.82-22.4-8-32.16-4.56-8.63-12.24-11.63-21.29-13.38s-21.43-2.88-29,3.67a30.35,30.35,0,0,0-5.57,7.18c-1.56,2.51,1.78,3.1,3.06,1,2.45-3.94,5.07-7.15,9.74-8.33,5-1.26,10.64-.85,15.67-.32,9.13,1,17.52,3.14,22.91,11.11,5.22,7.72,5.83,17.72,7.51,26.61,1,5.43,2.09,10.86,3,16.31.62,3.81,3.16,12.56.24,15.92-1.25,1.45-4,.84-5.62.59-2.69-.43-5.75-.08-8.47-.06-6.2,0-12.41.31-18.6.52-10,.34-20.81,1.08-30.62-1.06-2.94-.64-2.34-2.89-2-5.26s.5-4.61.6-6.92c.27-5.95.48-11.81,1.11-17.74,1.25-11.77,3.18-23.46,5.28-35.1.48-2.67-3.37-.93-3.72,1Z"/><path d="M102.74,281.62c-1.89,11.25-3.58,22.54-4.67,33.91-.54,5.67-.86,11.36-1,17.06-.13,5.09-.54,10.62.61,15.62,1.74,7.56,10.86,7.7,17.08,8.18,11.42.87,22.85-.77,34.3.24,10.38.92,20.62-.3,30.94-1.46,6.62-.74,8.45-6.81,8.7-12.53.22-5.07-.91-10.27-1.77-15.23a89.17,89.17,0,0,1-1.33-19.09,90.12,90.12,0,0,0-.49-15.41c-.81-6-4-11.73-5.64-17.53-.7-2.42-4.23.06-3.69,1.94,1.13,3.9,2.6,7.67,4,11.48,2,5.62,2.32,11.3,2.22,17.24-.07,4.49-.54,9-.18,13.48.4,5,1.49,9.87,2.28,14.77a46.8,46.8,0,0,1,.68,12.44c-.62,5.77-6.63,4.48-11,5-4.7.55-9.31,1.39-14.05,1.52s-9.47-.62-14.17-.94c-9.29-.61-18.6.52-27.91.22-4.19-.13-8.94-.42-12.87-2s-3.93-6.81-4-10.37c-.51-20,2.4-39.88,5.7-59.5.45-2.68-3.4-.94-3.72,1Z"/><path d="M117.61,359.17c.55,1.36,1.09,2.74,1.56,4.14.27.82.51,1.64.71,2.48.09.36.16.73.22,1.1.22,1.33-.59.33,1.18-.74a2.82,2.82,0,0,0-1.54,2.7,1.37,1.37,0,0,0,2.15.76c4.34-2.62.5-9.8-.88-13.2-.83-2-4.15.91-3.4,2.76Z"/><path d="M120.57,367.18c-5.53-1-12.79-3.21-17.73.47-4,3-2.28,8,1,10.48,4.17,3.16,10,.31,14.44-.61,4.08-.85,6.07-3.41,6.36-7.52.2-2.74-3.57-1-3.72,1-.19,2.71-1.53,2.53-3.87,3-2.5.53-4.72,1.49-7.32,1.52-4,.06-8.33-5.62-2-5.86,3.57-.14,7.15.69,10.64,1.33,2,.36,4.28-3.43,2.13-3.83Z"/><path d="M164.22,356.31a24.35,24.35,0,0,0,.13,8.47,36.31,36.31,0,0,1,.35,7.13c0,2.76,3.68,1,3.72-1s.41-3.92,0-5.94a25.62,25.62,0,0,1-.5-9.67c.49-2.66-3.37-.92-3.72,1Z"/><path d="M168,373.76c4.44-1.32,11.1-4.16,15.57-1.45,2.79,1.7-5.15,4.52-5.76,4.67-2.95.72-12.94,1.75-10.5-3.88,1.16-2.67-2.67-2-3.51,0-4.42,10.19,11.29,8.84,16.63,6.82,3.66-1.39,8-4.87,7.14-9.25-.56-2.86-4.6-3-6.8-3.21-4.17-.47-8.53,1.31-12.43,2.48-1.91.57-3,4.62-.34,3.83Z"/><path d="M113,215.71c-.19,2.92,1.67,9.8,5.55,9.83s8.07-3.48,9.9-6.82l-3.37.45c.19,3.58.69,10.09,6,9.29a12.47,12.47,0,0,0,10.16-10l-3.7,1.47c1,3.51,3,7.76,7.52,6.41,4.08-1.22,5.9-4.35,5.84-8.51l-3.29,2.21c1.88,2.29,3.71,6.7,7.5,4.63,4-2.18,6.43-6,4.62-10.47-.82-2-4.15.91-3.4,2.76l-2.82,3.77a9.76,9.76,0,0,1-1.22-1.63,29.69,29.69,0,0,0-1.81-2.48c-1.1-1.34-3.31,1.1-3.3,2.2,0,2.59-2.72,4.94-4.71,2.44A9,9,0,0,1,141.2,218c-.68-2.48-3.44,0-3.7,1.47-.49,2.75-5.24,7.12-7.73,3.85-1.16-1.53-.92-4.32-1-6.13-.11-2.09-2.88-.45-3.38.46-.93,1.7-4.09,5-6.31,3.16a8.21,8.21,0,0,1-2.35-6.13c.19-2.75-3.58-1-3.72,1Z"/><path d="M164.31,220.37c5.06,7.68,8.32,16.35,13.49,24,2.62,3.88,5.71,7.38,8.53,11.1.93,1.24,1.95,2.42,2.94,3.6,1.18,1.4,1.31,3.06,2.75,4.21,1.64,1.32,4.5-2.1,2.86-3.41-1.08-.88-1-2.18-1.85-3.17-1.45-1.69-2.86-3.4-4.2-5.18-2.83-3.75-5.86-7.3-8.5-11.21-4.88-7.23-7.84-15.47-12.62-22.72-1.27-1.91-4.5,1.1-3.4,2.76Z"/><path class="cls-4" d="M202.8,262.08c-2.36-2.59-6.8-3.39-9.35-.49l-1.6.66c-3.75,1.34-7.22,7-7,10.86.87,4.88,7.89,3.32,8.15-1.08.29,4.37.61,9.28,5.12,11.18,5.56,1.28,9.75-1.73,10.49-7.26C208.9,271.55,205.74,265.17,202.8,262.08Z"/><path d="M204.23,260.37a9.42,9.42,0,0,0-6-2.6c-2.58-.24-4.16,1.71-6.3,2.58-4.47,1.82-7.44,6.15-8.65,10.72-2.43,9.16,10.27,8.48,11.59.47l-3.7,1.46c.3,4.32.76,8.65,4.48,11.38,2.77,2,7.75,1.23,10.3-.83,7.8-6.27,3.86-16.81-1.74-23.18-1.34-1.53-4.27,1.82-2.87,3.42,3.36,3.82,8.84,13.4,2.71,17.11-6.91,4.18-8.89-5.34-9.2-9.84-.17-2.51-3.47.1-3.7,1.47-.48,3-4.45,1.56-4.41-.91,0-2.74,2.27-5.81,4.47-7.22,3.26-2.1,7-3.55,10.13-.61C202.9,265.2,205.78,261.81,204.23,260.37Z"/><path d="M112.39,209.82A201.12,201.12,0,0,0,99.18,238c-2,5.14-3.16,10.62-4.8,15.9-1.26,4.05-4.88,7-4.53,11.44.2,2.43,3.84,0,3.68-1.94s1.55-3.46,2.53-4.89c1.22-1.77,1.7-4.17,2.32-6.19,1.48-4.77,2.61-9.61,4.31-14.31a165.15,165.15,0,0,1,12.77-27.19c1.49-2.55-1.84-3.14-3.07-1Z"/><path d="M94.26,268.31c2.84-1.37,5,3.77,5.44,5.58,1.19,4.47-3.66.89-4.54-.57-1.11-1.86-4,.74-3.54,2.35.84,3,1.38,7.78-2.81,8.35-3.56.49-7.64-2.59-9.72-5.17-3.18-3.93-.5-9.16,3.11-11.55,4-2.6,7-2.22,9.64,1.65,1.31,1.88,4.53-1.13,3.4-2.76-4.07-5.89-9-5.42-14.66-1.68-5.19,3.42-8.26,10.28-5.47,16.2,2.25,4.79,10.3,9.05,15.38,6.6s6.25-8.45,4.81-13.58l-3.54,2.35c3,5.08,9.07,5.42,11.45-.29,2.23-5.35-3.8-13.73-9.57-10.94-2,1-2,4.74.62,3.46Z"/><path class="cls-4" d="M119.39,208.59c-9.63-3.32-17.85-13.58-21.34-24C94,174.05,96.89,166,100,154.89c4.81-17.38,27.55-30.53,47.36-28.3,39.43,4.44,41.9,68.65,3.92,82.22C140,213.12,130.09,212.28,119.39,208.59Z"/><path class="cls-8" d="M176.36,158.48c-1.35-5.76-2.11-10.84-5.17-16l-.39-.62a1.66,1.66,0,0,1-1.71-.58c-5.81-7.09-18.26-4.23-22.4-13.14-1.52-3.26,3.35-6.35,4.91-8.25a17,17,0,0,0,2.14-3.37A54.12,54.12,0,0,0,153,106.4a25.77,25.77,0,0,0-3.65-7.06c-3.65-3.12-9.38-3.57-14.52-2.07-7.1,2.08-15.89,7.83-16.38,15.83-.25,4.11,2.6,8.17,5.22,11a16.92,16.92,0,0,0,2.86,2.53c-1.13,1.31-3,2-4.32,2.75-3.57,2-11.2,7-13.6,9.93-4,4.82-7.55,7.63-9.34,13.89a48.52,48.52,0,0,0-1.46,7.37,1.55,1.55,0,0,1,.33.93c0,1.49,0,3.2.22,4.81,6.28,4,14.57-.06,20.12-3.72a1.53,1.53,0,0,1,1.37-.15l.18-.12c2.32-1.59,4.64-3.28,6.87-5.07a1.09,1.09,0,0,0,0-.25l1.88-1.78c2.26-2.13,3.22-4.92,4.8-7.55a35.23,35.23,0,0,0,3.66-9.82c1.32,2.56,2.65,5.15,3.85,7.74,1.84,4,5,7.52,8,10.87a1.71,1.71,0,0,1,1.65.17c5,3.4,19.27,15.14,25,7.3a7.6,7.6,0,0,0,1-1.81A14.91,14.91,0,0,0,176.36,158.48Z"/><path d="M120.45,206.68c-11.87-4.48-20-17-22.2-29.12-1.2-6.52.82-13.2,2.56-19.42,1.6-5.71,3.65-10.46,7.58-15,12.47-14.34,37.32-20.33,53.37-8.75,11.92,8.6,15.89,24.66,14.41,38.61-1.77,16.61-12,29.82-27.92,35-9.24,3-18.77,1.69-27.8-1.31-1.9-.64-4.27,3.11-2.13,3.82,18.44,6.15,38.79,2.43,51.35-13.06,8.87-10.95,12-25.95,9.94-39.7-2-13.39-9.8-25.75-22.59-31-17.09-7-38,1-50.22,13.51a35.5,35.5,0,0,0-8.59,14.6c-2.06,6.89-4.5,14.42-3.94,21.71,1.08,14,10.68,28.86,24,33.9C120.19,211.21,122.58,207.48,120.45,206.68Z"/><path d="M96,173.62c4,1.84,9.89.11,13.9-1.07a41.3,41.3,0,0,0,16-9.35,48.92,48.92,0,0,0,10.57-14A28.38,28.38,0,0,0,139,141.4c.34-1.94-.16-7.72,1.07-9.23l-3,0c.85,6.89,3.63,14.6,6.22,21.05,2.09,5.21,5.75,8.81,10.2,12.1,5.36,4,20.73,10.7,24.56,1.26,1.1-2.7-2.71-2-3.51,0s-9.27-.18-10.38-.51c-4.39-1.29-8.2-4.25-11.62-7.2-4-3.42-5.61-7.63-7.17-12.49-1.69-5.27-3.94-10.64-4.61-16.14-.22-1.72-2.37-.86-3,0-2.4,2.94-1.69,5.9-2,9.5-.52,6.38-3.67,11.73-7.57,16.63a39,39,0,0,1-14.3,11.07c-3.93,1.84-11.43,4.36-15.63,2.43-1.8-.83-4.21,2.87-2.13,3.83Z"/><path d="M130.5,125.93c-7.09-.73-12.63-7.1-10.35-14.29,2.16-6.78,10.71-10.79,17.08-12.18,6.8-1.48,12.11,2.17,15,8.12s3.5,16.65-4.64,18.91c-1.92.54-3,4.58-.34,3.84,19-5.29,10.65-38.1-8.57-34.89-9.38,1.56-18.25,7.33-22,16.19s4.06,17.38,12.59,18.26c2,.21,3.77-3.7,1.27-4Z"/><path d="M109.58,182.15c1.46,15.44,20,18.64,32.55,18.64,7.71,0,16.86-2.11,22.13-8.27,2.06-2.41,8.39-10.06,4-12.82-1.81-1.13-4.6,2.34-2.87,3.41s-1.74,5.2-2.55,6.26c-1.9,2.48-5,4.13-7.72,5.44-5.26,2.51-11.75,2.22-17.42,1.81-10.13-.75-23.28-4.52-24.4-16.4-.23-2.44-3.87,0-3.68,1.93Z"/><path d="M129.31,173.19l1.09-.08c-.18-1-.37-2-.56-3l-1,1.16,3,0q0-.3,0,.12c0-.12,0-.24,0-.36-.07.31-.08.36,0,.15,0,.06-.5.76-.2.39.57-.69,1.08-2,.24-2.71s-2.06,0-2.63.7a4.54,4.54,0,0,0-1,1.85,6,6,0,0,0-.1,1.79,1.18,1.18,0,0,0,1.2,1,2.56,2.56,0,0,0,1.83-1l1-1.16a2.5,2.5,0,0,0,.65-2,1.19,1.19,0,0,0-1.21-1l-1.09.07a2.83,2.83,0,0,0-2.39,2c-.26.83,0,2.06,1.12,2Z"/><path d="M139.87,170.53l.33.29c.08.08.46.55.18.17a2.84,2.84,0,0,1,.28.51q-.1-.31,0,0a2.12,2.12,0,0,1,.06.43l2-2.89c-.17.07-.54.1.06,0-.39,0,.37.13,0,0,.45.17.22.15.07,0,.37.38.14.19,0,0-.18-.35.11.42,0,.05a1.37,1.37,0,0,1-.05-.28c0,.38,0,.48,0,.31s.1-.43-.08.33c.12-.37-.05-.07-.5.88l-2.13.87q-.47-.28-.27-.15c.85.68,2,0,2.62-.7s1.09-2,.24-2.71c-1.11-.89-2.65.14-3.21,1.2a3.22,3.22,0,0,0-.33,2.13,2.31,2.31,0,0,0,3.14,1.86,2.88,2.88,0,0,0,2-2.89,4.29,4.29,0,0,0-1.64-2.85c-.82-.72-2.08,0-2.63.71s-1.06,2-.24,2.71Z"/><path d="M116.31,158.69c2.55-.3,4.21-2.1,6.14-3.61.75-.59,1.44-1.85.93-2.8s-1.79-.58-2.48,0-1.31,1.09-2,1.64a3.36,3.36,0,0,1-1.36.85,2.84,2.84,0,0,0-2.39,2c-.25.79,0,2.12,1.12,2Z"/><path d="M152,150.76c1,2.1,3.71,2.43,5.72,2.94s4.28-3.28,2.13-3.83c-1.33-.34-3.79-.48-4.46-1.88-1-2-4.26,1-3.39,2.77Z"/><path class="cls-2" d="M336.28,35c-2-3.38-5.32-4.61-8.9-4.52a9,9,0,0,0,.22-1.61c.13-6.17-4.35-11.82-10.88-11.06-4.77.55-11.1,5.38-12.65,10a16.44,16.44,0,0,0-.3,8.8c0,.19.09.37.13.55a14.29,14.29,0,0,0-5.42.14c-4.42.93-8.84,2.52-12,5.8-6.76,7,7.07,15.29,14.28,10.79a11.67,11.67,0,0,0,4.23-.12c-.92,4.15.3,8.64,4.43,10a5.27,5.27,0,0,0,4.32,2.09h.86a6,6,0,0,0,6-4.93,6.68,6.68,0,0,0,2.3-3.35,12.79,12.79,0,0,0,.29-5.67c0-.2-.09-.6-.14-1,3.6-1.28,7-1.83,10.31-3.87C337.07,44.76,338.5,38.8,336.28,35Z"/><path class="cls-12" d="M298.19,47a4,4,0,0,0-2.68-2.86,6,6,0,0,0-1.6-.3h0a6.22,6.22,0,0,0-3.41.38,2.82,2.82,0,0,0-2.5,1.73,3,3,0,0,0-.2.9,4.49,4.49,0,0,0-.21.65,4.58,4.58,0,0,0,1.88,5.13c2.12,1.29,4,.61,6-.42A5.44,5.44,0,0,0,297.67,50,4.31,4.31,0,0,0,298.19,47Z"/><path class="cls-12" d="M311.77,39.66c-.75-1.72-2.55-1.69-4-1.65a3,3,0,0,0-1.13.29,3.66,3.66,0,0,0-1,.6,5.5,5.5,0,0,0-1.47,1.74,4.17,4.17,0,0,0-.43,2.17c.22,2,1.88,4,4.08,3.77a4.64,4.64,0,0,0,2.62-.74l.72-.58a4.69,4.69,0,0,0,1-1.42,4.35,4.35,0,0,0,.52-2.32A3.09,3.09,0,0,0,311.77,39.66Z"/><path class="cls-12" d="M317.37,24.22a5.37,5.37,0,0,0-2-1.61,4.48,4.48,0,0,0-2.43-.34,4.67,4.67,0,0,0-2.36,1,5.28,5.28,0,0,0-2.07,3.29,5.22,5.22,0,0,0,.12,2.39c.13.34.28.68.44,1a4.91,4.91,0,0,0,1.45,1.49,4.1,4.1,0,0,0,2.9.88,3.55,3.55,0,0,0,1.81-.39,5.07,5.07,0,0,0,1.05-.79h0a3.67,3.67,0,0,0,2-2.18C318.93,26.5,318.42,25.75,317.37,24.22Z"/><path class="cls-12" d="M329.78,37.05a4.51,4.51,0,0,0-2.15-2.83l.06.05a1.18,1.18,0,0,0-.18-.13,4.41,4.41,0,0,0-2.09-.61,4.47,4.47,0,0,0-2.27.53,4.67,4.67,0,0,0-1.19.84,5.69,5.69,0,0,0-1.46,2.25,4,4,0,0,0-.06,2.06,3.91,3.91,0,0,0,.94,1.76,4,4,0,0,0,1.4,1,3.47,3.47,0,0,0,3.68.72c2.14-1,2.69-1.54,3.28-3.27A4.49,4.49,0,0,0,329.78,37.05Z"/><path class="cls-12" d="M321.7,52.92a4,4,0,0,0-2.57-2.87,4.39,4.39,0,0,0-1.9-.51,3.71,3.71,0,0,0-3.61,2.54,3.71,3.71,0,0,0-.42.76,3.06,3.06,0,0,0-.34.58,4,4,0,0,0-.05,2.06,4,4,0,0,0,1,1.76,4,4,0,0,0,4.76.78,12.08,12.08,0,0,0,2-1.33A3.87,3.87,0,0,0,321.7,52.92Z"/><path d="M306.71,37.33c-8.86-3.85-21-3.37-22.8,8.3a10.27,10.27,0,0,0,5,10.37c5.42,3,13.29-.53,18.49-2.21L306,51.36c-2.67,4.28-5,9.06-2,13.77,2.27,3.57,7.19,3.65,10.86,3.1s8.53-3,9.84-6.83c1.49-4.43,1-10.7-2.66-13.91l-2.5,3.62c4.42,2.11,10.14.44,14.16-2,3.6-2.16,4.67-6,4.57-10-.09-3.46-.93-7.61-4.46-9-4.19-1.7-9.79,2.86-12.79,5.15.66.81,1.32,1.61,2,2.42,6.06-6.47,4.53-22.8-6.7-21.8-5.11.45-9.15,4.35-11.55,8.58a23.18,23.18,0,0,0-2.59,8.77,8.55,8.55,0,0,0,.29,3.63c.4,1.07,1.62,2.38,1.76,3.46.3,2.45,3.92,0,3.68-1.93a2.07,2.07,0,0,0-.48-1.34c-2.09-2.39-1.61-5.48-.89-8.28A11.79,11.79,0,0,1,314.51,20c8.32-2.56,10.35,11.2,6.14,15.69-1.58,1.69,0,3.94,2,2.43,2.56-2,5.34-4.15,8.7-4.2,2.57,0,3,4,3.23,5.79.41,3.32-.52,5.87-3.8,7.16-2.9,1.14-6.13,1.79-9,.4-1.63-.78-3.93,2.38-2.5,3.62,2.25,2,2.48,5,2.53,7.77.07,3.84-3.53,5.08-6.5,5.73a8.73,8.73,0,0,1-7.4-1.61c-3.49-2.86-.49-7.59,1.26-10.41.67-1.06.2-2.93-1.37-2.43-6.05,2-17.48,6.77-19.83-2.33-1.13-4.4,1.25-7.69,5.52-8.7,3.72-.87,7.8.78,11.15,2.23,1.83.79,4.24-2.91,2.13-3.82Z"/><path d="M324.1,48.17l-1,.3c-1.57.46-3.23,3.53-.8,3.9s4.34,1.75,6.55,2.53A22.88,22.88,0,0,0,336,56c3.48,0,7.91,1,11.16-.57,2-.94,2-4.72-.62-3.45s-7.79.07-10.65,0c-4.54,0-8-2.9-12.33-3.56l-.81,3.9,1-.3c1.91-.56,3-4.6.34-3.84Z"/><path d="M320.41,51.8A28,28,0,0,1,332.8,71.72c.25,2.44,3.88,0,3.68-1.93-.85-8.22-6.16-17.07-13.2-21.41-1.81-1.12-4.6,2.35-2.87,3.42Z"/><path d="M340.11,63c-.42-.23,0,.06.09.13a3.72,3.72,0,0,1,.43.46c.2.23.38.47.6.69.75.79,2.11-.09,2.62-.7a2,2,0,0,0,.24-2.71c-.24-.25-.44-.53-.67-.79a4.19,4.19,0,0,0-1.18-.91,1.72,1.72,0,0,0-1.38.19,3.09,3.09,0,0,0-1.22,1.21,2.3,2.3,0,0,0-.31,1.49,1.25,1.25,0,0,0,.78.94Z"/><path d="M349.32,70.14c.72.25,1.37.64,2.09.89,1,.36,2.13-.57,2.59-1.4s.57-2.07-.47-2.43c-.71-.25-1.36-.64-2.08-.89-1-.36-2.13.57-2.59,1.4s-.57,2.07.46,2.43Z"/><path d="M361.81,75.19A4.12,4.12,0,0,0,366,75c.75-.6,1.44-1.85.93-2.8s-1.79-.58-2.48,0c.83-.35,1.06-.48.71-.39.51-.12.26,0,.08,0l-.22,0c-.41,0,.36.07-.05,0a4.33,4.33,0,0,1-1.06-.32c-1-.46-2.18.64-2.6,1.4a1.63,1.63,0,0,0,.47,2.42Z"/><path d="M376.51,73.77a6.5,6.5,0,0,0,4.68-1.45c.71-.66,1.47-1.8.93-2.8s-1.83-.64-2.47,0c-.06,0-.56.39-.17.16-.22.11-.23.12-.05,0a2.22,2.22,0,0,1-.37.09c.22,0-.4,0-.49,0h-.79a2.78,2.78,0,0,0-2.39,2c-.28.88,0,2,1.12,2Z"/><path d="M386.5,69c2.24-.61,4.77-2.26,5.49-4.59.27-.88,0-2-1.12-2a2.75,2.75,0,0,0-2.39,2c-.08.22-.06.19,0-.09.26-.5.05-.09-.07,0,.21-.2.21-.22,0,0a5.2,5.2,0,0,1-.47.35c.18-.13.17-.12,0,0l-.51.27s-.61.25-.18.09a3.88,3.88,0,0,1-.45.14,2.9,2.9,0,0,0-2,2.41A1.29,1.29,0,0,0,386.5,69Z"/><path d="M393.68,61.62a8,8,0,0,0,3.17-5.79,1.29,1.29,0,0,0-1.69-1.42,2.87,2.87,0,0,0-2,2.42,2.26,2.26,0,0,1-1,2c-.76.59-1.45,1.85-.93,2.8s1.79.58,2.47,0Z"/><path d="M396.25,49.89c0-.72.07-1.43,0-2.15a3.43,3.43,0,0,0-1-2c-.74-.79-2.12.11-2.63.71a2,2,0,0,0-.23,2.71c-.05-.1,0-.06.07.1a2.44,2.44,0,0,1,.14.28c-.17-.37,0,.51,0,0,0,.45,0,.91-.05,1.36,0,1,.65,1.7,1.69,1.42a2.85,2.85,0,0,0,2-2.41Z"/><path d="M392.48,39l-.45-.24c-.16-.08-.14-.07.05,0l-.33-.2a4.1,4.1,0,0,1-.5-.35A2.73,2.73,0,0,1,391,38c.28.29.11.15,0,0-.54-1-1.79-.59-2.47,0s-1.46,1.85-.93,2.81a5.85,5.85,0,0,0,2.72,2,1.66,1.66,0,0,0,1.37-.18A3.09,3.09,0,0,0,393,41.39a1.64,1.64,0,0,0-.47-2.43Z"/><path d="M382.76,37.5c1.95,0,3.76-4,1.27-4-1.95,0-3.76,4-1.27,4Z"/><path d="M383.56,33.61a18.71,18.71,0,0,0-4.29-.37,2.78,2.78,0,0,0-2.39,2c-.28.88,0,2,1.12,2a15.85,15.85,0,0,1,3.44.23A2.47,2.47,0,0,0,384,36c.39-.68.61-2.18-.47-2.42Z"/><path d="M371.32,35.88c-.82.56-1.55,1.23-2.38,1.79a2.42,2.42,0,0,0-.92,2.8c.55,1,1.76.52,2.47,0s1.55-1.23,2.38-1.78a2.44,2.44,0,0,0,.92-2.81c-.55-1-1.76-.52-2.47,0Z"/><path d="M362.8,45.53c0,.1,0,.2,0,.3.06-.26.05-.28,0-.08s-.06.18.05-.11c0,.09-.08.18-.13.27a12.72,12.72,0,0,0-.68,1.5c-.31.88.06,2,1.12,2a2.77,2.77,0,0,0,2.39-2c.09-.23.08-.21,0,.06,0-.1.09-.19.14-.28l.34-.66a5.39,5.39,0,0,0,.56-2,1.28,1.28,0,0,0-1.69-1.41,2.87,2.87,0,0,0-2,2.41Z"/><path d="M361.18,55.63c.51,1.36.57,2.83,1.19,4.16.46,1,1.84.56,2.47,0a2.48,2.48,0,0,0,.93-2.8c-.6-1.29-.69-2.81-1.19-4.16-.39-1-1.89-.51-2.48,0a2.5,2.5,0,0,0-.92,2.8Z"/><path d="M364,64.14a8.51,8.51,0,0,0,2.19,3.71c.76.78,2.11-.09,2.63-.7a2,2,0,0,0,.24-2.71s-.4-.45-.25-.26a6.61,6.61,0,0,1-.44-.6,5.55,5.55,0,0,1-.69-1.38c-.67-2.42-4.2,0-3.68,1.94Z"/><path d="M369.17,70.82A10.56,10.56,0,0,1,370.46,72a2.88,2.88,0,0,0,1.89.85,2.75,2.75,0,0,0,2.39-2c.3-.93-.05-1.93-1.12-2l.11,0c-.35-.1.28.2,0,0a3.34,3.34,0,0,1-.56-.5,8.81,8.81,0,0,0-1.1-1,2,2,0,0,0-2.63.7c-.52.63-1.13,2.09-.24,2.71Z"/><path d="M384.63,79.15a3.88,3.88,0,0,0,2.59,1.16,2.76,2.76,0,0,0,2.39-2c.29-.91-.05-2-1.12-2-.41,0,.35.1-.05,0a2.6,2.6,0,0,1-.36-.13c.35.14,0,0-.1-.08a3.21,3.21,0,0,1-.48-.42c-.78-.75-2.09.07-2.63.71s-1,2-.24,2.71Z"/><path d="M395,78.53a4.22,4.22,0,0,0,2.89-.86c.73-.62,1.46-1.83.93-2.8s-1.81-.61-2.47,0a1.81,1.81,0,0,1,.55-.29c-.19,0-.16,0,.09,0a5.77,5.77,0,0,1-.72,0,2.76,2.76,0,0,0-2.39,2c-.28.87,0,2,1.12,2Z"/><path d="M404,75.49a12,12,0,0,0,3.61-2,2.42,2.42,0,0,0,.93-2.8c-.55-1-1.76-.52-2.47,0l-1,.73c.5-.35-.09,0-.2.09l-.29.13c.41-.18-.15,0-.21,0a2.91,2.91,0,0,0-2,2.41,1.29,1.29,0,0,0,1.7,1.42Z"/><path d="M411.65,68.76a6.59,6.59,0,0,0,2.71-2.7c.41-.77.58-2.07-.47-2.43s-2.15.56-2.6,1.4c-.07.14-.34.51,0,0l-.29.33c.43-.47.11-.13,0,0,.44-.35.13-.09,0,0A2.78,2.78,0,0,0,409.5,68c.19,1.07,1.33,1.2,2.15.76Z"/><path d="M417,58.72q.14-.34-.06.12a2.53,2.53,0,0,1,.13-.22c.13-.2.08-.14-.14.2l.21-.29a7.2,7.2,0,0,0,1-1.9,1.36,1.36,0,0,0-1.12-2,2.79,2.79,0,0,0-2.39,2c-.09.23-.06.19.06-.12l-.12.22c-.14.2-.09.14.13-.2l-.21.29a7,7,0,0,0-1.05,1.9,1.36,1.36,0,0,0,1.12,2,2.79,2.79,0,0,0,2.39-2Z"/><path d="M417.83,46.3a.46.46,0,0,1,.2.35,1,1,0,0,1,0-.24,2.48,2.48,0,0,1,0-.27c0,.45,0,0,0-.12a1.43,1.43,0,0,0-.43-1.21,1.42,1.42,0,0,0-1.26-.21,2.87,2.87,0,0,0-2,2.42,3.75,3.75,0,0,0,.72,2.7,1.34,1.34,0,0,0,1.27.2,2.74,2.74,0,0,0,1.36-.91,2,2,0,0,0,.24-2.71Z"/><path d="M304.82,34.59c-4.27-6.82-6.42-17.54-2.69-25,1.31-2.62-2-3.24-3.07-1-4.39,8.79-2.79,20.58,2.36,28.8,1.22,1.94,4.46-1.07,3.4-2.76Z"/><path d="M300.24,5.73c-.13,0-.15-.28-.15-.33a1.77,1.77,0,0,1,.36-1.12c-.27.46.32-.3.1-.1,0,0,.31-.14.41-.17a1.86,1.86,0,0,1,1.4.2c.75.46,1.3,1.84.7,2.4a1.19,1.19,0,0,1-1.11.24,1.86,1.86,0,0,1-.72-.35c-.27-.21-.17-.52-.26-.18.23-.89,0-2-1.12-2a2.75,2.75,0,0,0-2.39,2,3.28,3.28,0,0,0,1.3,3.88,4.8,4.8,0,0,0,4.69,0c3.14-1.43,4.88-6.21,2.36-8.92-2.29-2.45-6.24-1.14-8,1.27-1.61,2.24-2.58,6.57,1.15,7.12,1.93.28,3.76-3.6,1.26-4Z"/><path d="M301,39.22l.29.15c1.43.71,3.74-2,2.77-3.3-7.82-10.29-21.55-10.61-31.61-3.9-2.07,1.38-.88,4.45,1.54,2.84,8.3-5.53,20.36-4.49,26.67,3.82l2.76-3.29-.3-.15c-1.76-.87-4.19,2.81-2.12,3.83Z"/><path d="M274.83,33.17c-.7-2.7-2.75-4.72-5.68-4.48a6.12,6.12,0,0,0-3.88,2c-1.11,1.16-1.16,2.92-1.3,4.41a4.56,4.56,0,0,0,1.24,4,6.44,6.44,0,0,0,3.79,1c3.7.09,5.32-4.15,4.38-7.16-.75-2.41-4.27.07-3.68,1.94a3.12,3.12,0,0,1,.27,1.64c.44-.35.4-.48-.1-.39a5.89,5.89,0,0,1-.71-.13c-.3-.06-1.21-.21-1.34-.58a4.63,4.63,0,0,1,0-2.19,5.1,5.1,0,0,1,0-.78.31.31,0,0,0-.18.26,1.91,1.91,0,0,1,1.41,0,3.12,3.12,0,0,1,2.07,2.38c.64,2.44,4.18,0,3.69-1.93Z"/><path class="cls-13" d="M143.41,46.21c-1.74-2.68-5.43-2.91-8.23-2.92-4,0-6.82-.36-10.4,2a16,16,0,0,0-3.7,3.74,10,10,0,0,0-2-2.25,16.8,16.8,0,0,0-3.71-2.24,30.75,30.75,0,0,1-3.55-3.78,43,43,0,0,0-4.36-5.95q-.28-.33-.6-.66l0,0-.47-.41a4.53,4.53,0,0,0-.92-1.43c-2.26-2.39-5.9-1.89-8.68-.9-5.11,1.82-7.06,5.51-7.38,9.74C88,44.8,89,49,91,53.21a13,13,0,0,0-2.21-.47,12.19,12.19,0,0,0-11.47,4.9A6.55,6.55,0,0,0,78,65.76c2.07,2.44,6.07,2.24,8.9,1.82,3.18-.48,6.39-.89,9.61-1.17A4.35,4.35,0,0,0,99,71a7.08,7.08,0,0,0,7.79.12c0,.31.09.62.13.93a43,43,0,0,0,1.23,6.65,7.26,7.26,0,0,0,6.17,4.87c3.66.09,5.86-2.07,7.42-5.18a14.93,14.93,0,0,0,1.47-7.12c-.1-1.64-1.68-7.22-1-7.81s5.2.23,6.8.39a20.18,20.18,0,0,0,9.45-1C144.81,60.33,146.87,51.53,143.41,46.21Z"/><path class="cls-7" d="M102.65,35.67a7.65,7.65,0,0,0-6.35-.94,7.28,7.28,0,0,0-4,2.67,5.93,5.93,0,0,0-.88,4.52,3.92,3.92,0,0,0,.56,2A5.59,5.59,0,0,0,93.84,46a4.62,4.62,0,0,0,1.82.89,9.17,9.17,0,0,0,4.9-.21,6.67,6.67,0,0,0,4.56-4.77A6,6,0,0,0,102.65,35.67Z"/><path class="cls-7" d="M108.92,52.5a3.57,3.57,0,0,0-2.46-2.74l-.29,0c-2.62-1.26-3.58-.69-5.34.57a4.45,4.45,0,0,0,1.64,7.5,4.24,4.24,0,0,0,3.45-.29l.75-.52c.25-.14.5-.29.74-.45a3.13,3.13,0,0,0,1-1.28A3.8,3.8,0,0,0,108.92,52.5Z"/><path class="cls-7" d="M93.1,61.48a4,4,0,0,0-1.49-1.41c-.21-.09-.41-.17-.62-.24a3.25,3.25,0,0,0-1.81-.42l-.42.19a4.06,4.06,0,0,0-1,.24A8,8,0,0,0,86,61a3.42,3.42,0,0,0-.83,1.26,3.25,3.25,0,0,0,0,3.51,5.38,5.38,0,0,0,.79,1,4.25,4.25,0,0,0,5.14.67L91.8,67a4.09,4.09,0,0,0,1.9-3.56A4,4,0,0,0,93.1,61.48Z"/><path class="cls-7" d="M121.66,70.85a2.75,2.75,0,0,0-1-2.64,2.72,2.72,0,0,0-1.29-.59l-2.21,0a3.92,3.92,0,0,0-.66.15,3.74,3.74,0,0,0-1.17.53,3.66,3.66,0,0,0-1.28,1.58,3.91,3.91,0,0,0,3.28,5.94l.47,0a4,4,0,0,0,4-4A4.72,4.72,0,0,0,121.66,70.85Z"/><path class="cls-7" d="M131,53.76a4.07,4.07,0,0,0-1.94-2.33A3.92,3.92,0,0,0,127,51a4.37,4.37,0,0,0-4.81,1.67,4.16,4.16,0,0,0-.78,2,4.34,4.34,0,0,0,.92,3,5.06,5.06,0,0,0,4.42,2,5,5,0,0,0,4-2.83A4.2,4.2,0,0,0,131,53.76Z"/><path class="cls-7" d="M141.21,47.49a4.08,4.08,0,0,0-3.87,0,4,4,0,0,0-3.43,4,5.27,5.27,0,0,0,.21,1.31,4.72,4.72,0,0,0,1.11,1.86,4.26,4.26,0,0,0,1.93,1.08,4.51,4.51,0,0,0,2.22,0,5.38,5.38,0,0,0,3.34-2.8A4.05,4.05,0,0,0,141.21,47.49Z"/><path d="M96.24,54c-10.92-3.61-7.83-19.39,2-22.06,8.8-2.37,12.61,9,12.36,15.6-.36,9.58-11.43,17-19.73,19.28-4.22,1.17-13.59.72-13.75-5.38-.09-3.24,6.52-4.22,8.53-4.39,3.07-.26,6.25.8,9.19,1.54,1.94.49,4.28-3.29,2.13-3.83-7.22-1.82-14.55-2.81-20.65,2.34-4.89,4.13-2.91,10.27,2.26,12.88,13,6.54,32-7.88,35.25-20.21,2.8-10.58-4.06-24.68-16.41-21.35S80.09,53.14,94.11,57.78c1.9.62,4.27-3.12,2.13-3.83Z"/><path d="M115.16,46c.7-1.69,2.62-.49,3.45.09,1.58,1.12,1.58,3.18,1.15,4.89-.72,2.83-3.26,5.53-4.85,7.94a50.74,50.74,0,0,1-6.7,8.07,22.46,22.46,0,0,1-4,3l-1.24.65q-3.45,2.22-3.27-2.36c1.79-1.63.64-4.83-1.54-2.84-3.67,3.34-4.73,10.55,2.23,9.69s13.07-8.61,16.69-14c2.82-4.16,10.3-12.83,4.95-18-3.86-3.7-8.54-1.81-10.42,2.74-1.11,2.7,2.7,2,3.51,0Z"/><path d="M122.15,51.21c3.43-3,7.22-6.4,12-6.75,5.78-.42,7.75,6.28,6.45,10.63-2.18,7.33-11.94,10.16-18.51,8-1.54-.51-3.66,1.84-2.77,3.29a14.8,14.8,0,0,1,2.32,9.13c-.19,3-1.93,7.88-5.94,6.43-4.32-1.57-6.43-8-5.73-12.12.45-2.68-3.39-.94-3.72,1-1.14,6.69,4,17.31,12.11,15.19,3.65-1,5.51-5.44,6.46-8.65a17,17,0,0,0-2.1-13.74l-2.76,3.29c9.92,3.3,21.47-2.8,24.45-12.79A10.48,10.48,0,0,0,138.17,41c-6.19-2.51-13.37,3.73-17.56,7.41-1.83,1.61-.67,4.79,1.54,2.85Z"/><path d="M95.54,70.78C89.12,75.76,81,77.26,73,76.29c-2-.23-3.78,3.66-1.27,4a34.29,34.29,0,0,0,25.33-6.64c2-1.51.78-4.65-1.54-2.84Z"/><path d="M98.54,73.85a23.15,23.15,0,0,0-6.75,13.66c-.29,2.73,3.51,1,3.72-1a17.8,17.8,0,0,1,5.42-10.65c1.93-2-.5-4-2.39-2Z"/><path d="M69.71,90.3s-.36.56-.1.19a6.36,6.36,0,0,1-.46.57A13,13,0,0,1,68,92.24,12.41,12.41,0,0,1,65.62,94a2.79,2.79,0,0,0-1.54,2.7c.19,1.06,1.33,1.18,2.15.76a17.56,17.56,0,0,0,3.52-2.59,14.19,14.19,0,0,0,3-3.57c.41-.76.58-2.07-.47-2.42s-2.15.55-2.6,1.4Z"/><path d="M52.5,93.39a8.38,8.38,0,0,1-4.13-.87,2,2,0,0,0-2.63.71c-.49.58-1.17,2.14-.24,2.71a11.31,11.31,0,0,0,5.74,1.41c1.95,0,3.76-3.93,1.26-4Z"/><path d="M37.73,85.3a13,13,0,0,1-3.53-5c-.37-1-1.91-.5-2.47,0a2.51,2.51,0,0,0-.93,2.8,15.35,15.35,0,0,0,4.06,5.65c1.47,1.46,4.37-1.92,2.87-3.42Z"/><path d="M30.92,72.75a41.1,41.1,0,0,1-.36-6.37c0-2.76-3.72-1-3.72,1a48.15,48.15,0,0,0,.4,7.3c.37,2.46,4,0,3.68-1.93Z"/><path d="M33.31,60.66a25.76,25.76,0,0,0,3-3.9c.49-.74.52-2.1-.47-2.43s-2.06.59-2.6,1.4l-.51.76c.21-.3-.29.4-.34.46a15.81,15.81,0,0,1-1.47,1.71c-.62.63-1,2-.24,2.71s2-.07,2.63-.71Z"/><path d="M42.12,58.22a12.78,12.78,0,0,0,2.3-.35,1.27,1.27,0,0,1,1.46.46c.7.83,2.15-.14,2.63-.7a2.06,2.06,0,0,0,.23-2.72c-1.47-1.74-3.51-.71-5.35-.65a2.79,2.79,0,0,0-2.39,2c-.27.85,0,2,1.12,2Z"/><path d="M48.65,68.64c.43,1-.15,2.15-.59,3s-.6,2.07.47,2.43a2.44,2.44,0,0,0,2.6-1.4c1-2.15,1.93-4.5.92-6.83-.44-1-1.86-.54-2.47,0a2.47,2.47,0,0,0-.93,2.8Z"/><path d="M41.68,75.78c.45-.2,0,0-.11,0s-.21,0,0,0h-.33s-.55-.08-.23,0a3,3,0,0,1-.59-.21c-1-.45-2.18.64-2.6,1.4a1.64,1.64,0,0,0,.47,2.43,4.89,4.89,0,0,0,4-.19,2.73,2.73,0,0,0,1.53-2.69c-.19-1.11-1.31-1.15-2.15-.77Z"/><path d="M18.36,73.91a20.61,20.61,0,0,1-3-2.28c-.78-.76-2.1.07-2.63.7s-1,2-.24,2.71a20.44,20.44,0,0,0,3,2.28,2,2,0,0,0,2.63-.7c.51-.61,1.14-2.11.24-2.71Z"/><path d="M10.52,34.08l2.66-2.66c.63-.63,1-2.05.24-2.71s-2,.07-2.63.7L8.13,32.07c-.63.63-1,2-.24,2.71s2-.08,2.63-.7Z"/><path d="M11.93,61.73c-.06-1.39-1.08-2.6-1.14-3.8s-1.43-1.14-2.15-.76a2.85,2.85,0,0,0-1.53,2.7c.07,1.36,1.08,2.43,1.14,3.8,0,1.11,1.43,1.13,2.15.76a2.87,2.87,0,0,0,1.53-2.7Z"/><path d="M10.43,46.63c0-.13.08-.58,0,0a3,3,0,0,1,.14-.42,3.6,3.6,0,0,0,.28-1.07,1.29,1.29,0,0,0-1.69-1.42,2.9,2.9,0,0,0-2,2.42c0,.32.15-.53,0-.2,0,.12-.09.24-.14.36a3.91,3.91,0,0,0-.27,1.35A1.29,1.29,0,0,0,8.4,49a2.88,2.88,0,0,0,2-2.41Z"/><path d="M115.91,44.39c3.87-4.9,5.24-9.19,6-15.46.66-5.8,1.3-13.25-2.11-18.37-1.27-1.9-4.5,1.11-3.4,2.76,2.78,4.17,2.51,10.43,2,15.18-.63,5.34-1.43,9.61-4.8,13.88-1.71,2.16.67,4.18,2.39,2Z"/><path d="M122.62,47.26A40.93,40.93,0,0,0,129.23,39c2.08-3.23,4.6-6.76,5.39-10.58a70,70,0,0,0,1.66-12.23c.06-2.16.09-6-1.63-7.51-1.55-1.4-4.43,2-2.86,3.42-.2-.7-.26-.72-.19-.07a14.12,14.12,0,0,1,1,5.16,45.37,45.37,0,0,1-1.05,9.07c-1.27,6.41-5.61,13.71-10.43,18.17-1.78,1.64-.63,4.84,1.54,2.84Z"/><path d="M116.64,10.88c.52-.5.59-.65.22-.44a5.51,5.51,0,0,1-1.19.45,1.13,1.13,0,0,1-1.11-.34c-.32-.4-.59-1.42-.43-1.63.37-.49,1.26-1.37,1.94-1.2a4.64,4.64,0,0,1,.4.55,5.7,5.7,0,0,1,.45.71c.57,1-.75-.47,1.27-1.44-2,.94-2,4.72.62,3.46,3.12-1.49,1.89-4.58.21-6.57-2-2.4-6.21,1.07-7.46,2.72-1.54,2-1.83,5.79.72,7.23,3,1.72,7.83-1.15,8.08-4.5a1.28,1.28,0,0,0-1.69-1.41,2.89,2.89,0,0,0-2,2.41Z"/><path d="M130.63,10.65l.12.22-.06-1.39c.45-1.74,1.88-1.24.65-1.22-.49,0-1-.44-1.31-.73s-1.12-1-.5-1.52c.27-.23,1.34-.92,1.65-.74a3.37,3.37,0,0,1,1,1,1.73,1.73,0,0,1,.26.73.52.52,0,0,0,.3-.55c-2,.31-3.06,4.26-.34,3.83,3.19-.49,5.07-5,2.72-7.41-1-1.07-2-1.88-3.58-1.47a9.48,9.48,0,0,0-3.82,2,6.36,6.36,0,0,0-2.18,4.42c-.07,1.53,1.09,2.74,2.25,3.59a4.38,4.38,0,0,0,4,.52c1.55-.54,3.14-2.36,2.23-4-1.08-2-4.35,1-3.4,2.76Z"/><path class="cls-14" d="M38.28,369.58a3.84,3.84,0,0,0-1.83-.72h-1a3.86,3.86,0,0,0-1.85.78,7.35,7.35,0,0,0-2.28,2.76c-.05.06-.09.12-.14.17A3.94,3.94,0,1,0,36.9,378a10.4,10.4,0,0,0,1-1.27,10.91,10.91,0,0,0,1.64-2.66A3.9,3.9,0,0,0,38.28,369.58Z"/><path class="cls-15" d="M52,333.76a7.7,7.7,0,0,0-5.73-6.44,11,11,0,0,0-7.07-3.9,13.78,13.78,0,0,0-8,1.15,14,14,0,0,0-10.42-3.65,3.46,3.46,0,0,0-2.38.42,15.9,15.9,0,0,0-3.11,1.18A4.67,4.67,0,0,0,13.42,329a27.09,27.09,0,0,0-1.3,5.94,14.55,14.55,0,0,0-7.91,2.51c-5.07,3.65-5.11,10.11-2.5,15.27a5,5,0,0,0,4.72,3,15.21,15.21,0,0,0,1.28,1c-.22,2.81,2.26,5.57,5,5.2.65,5.77,3.83,10.56,10.76,11.65,10,1.57,16.06-6.94,17.69-16.35.39-.1.79-.21,1.18-.35C50.88,353.87,53.44,341.67,52,333.76ZM31,355.81a11.91,11.91,0,0,0,1.23-.52,16.84,16.84,0,0,1-1.81,5.24A11.51,11.51,0,0,0,31,355.81Z"/><path class="cls-14" d="M27.84,372.5c-.7-1.07-1.45-2.08-2.19-3.12l0-.06a.16.16,0,0,0,0-.07,9.32,9.32,0,0,1-.5-1.23c-.79-2.25-3.79-3.07-5.8-2.15a4.46,4.46,0,0,0-2.14,5.8,15.43,15.43,0,0,0,1.46,2.75,12.74,12.74,0,0,0,4.14,3.72c1.43,1,3.63.31,4.7-.87A4,4,0,0,0,27.84,372.5Z"/><path class="cls-16" d="M37.88,340.34c-.46-1.78-2.05-2.95-3.48-3.88-2.2-1.44-5.59-1.1-8.1-.84a5.51,5.51,0,0,0-3.63,1.68,5.24,5.24,0,0,0-1.22,5.11,4.69,4.69,0,0,0-1.67,2.68c-1.19,6.09,3.11,7.89,6.63,8.05a9.57,9.57,0,0,0,2.12-.24,14.11,14.11,0,0,0,2.77-1,11.56,11.56,0,0,0,4-2.82C37.67,346.44,38.82,343.9,37.88,340.34Z"/><path d="M30.11,369.76c-4.45,0-8.85-1.1-11.43-3.33a7,7,0,0,1-2.13-3.08,8.14,8.14,0,0,1-6.36-.36c-5.5-2.51-9.73-10.35-8.53-15.82a6.76,6.76,0,0,1,1.72-3.34A6.62,6.62,0,0,1,.7,338.36C.81,334.7,4,331,7.79,330a8.27,8.27,0,0,1,.1-6.08c1.71-4.14,6.77-6.89,12-6.53a11.26,11.26,0,0,1,7.22,3.14,8,8,0,0,1,3.95-3.21c6.1-2.46,16.08.74,20.15,6.46a9.35,9.35,0,0,1,1,9.8,7.9,7.9,0,0,1,4.5,3.78c1.95,3.7,1.12,9.33-2.07,14a15.45,15.45,0,0,1-9.88,6.86,7.6,7.6,0,0,1-2.7,8c-2.77,2.3-7.37,3.45-11.91,3.45ZM19.5,356a2.19,2.19,0,0,1,1.25.38,2.23,2.23,0,0,1,.66,3c-1.22,2-.63,2.92.19,3.64,3.57,3.09,13.75,3,17.57-.18,1.14-.94,2.2-2.42.36-5.59A2.23,2.23,0,0,1,41.7,354c3.36.37,6.81-1.51,9.21-5.05,2.22-3.25,3-7.21,1.81-9.41-.7-1.33-2.15-2-4.3-2a2.23,2.23,0,0,1-1.68-3.7c2.26-2.59,2.54-5,.85-7.39-2.87-4-10.65-6.6-14.85-4.91-1.25.51-2.84,1.58-2.32,5.08a2.23,2.23,0,0,1-4.36.89,6.88,6.88,0,0,0-6.46-5.58c-3.29-.21-6.62,1.44-7.59,3.79-.8,1.93.27,3.89,1.54,5.37a6.89,6.89,0,0,1,1.31,1.33l.18.16a2.19,2.19,0,0,1,.75,1.42,5.16,5.16,0,0,1,.21.49,2.23,2.23,0,0,1-4.15,1.64,4,4,0,0,0-.36-.75q-.48-.45-.9-.9a2.08,2.08,0,0,0-1.35-.15c-2,.34-4,2.47-4.09,4.21-.06,1.95,2.74,2.91,4.42,3.31a2.23,2.23,0,0,1-.52,4.4c-2.31,0-2.83,1-3,1.92-.68,3.13,2.18,9.05,6,10.82,1.33.61,3.37,1.06,5.68-2A2.21,2.21,0,0,1,19.5,356Z"/><path d="M29.81,355.33a15.36,15.36,0,0,1-9.59-3.15A8.16,8.16,0,0,1,17.08,345a2.19,2.19,0,0,1-.5-1.56c.2-2.92,2.29-6,5.76-8.44,3-2.13,7.61-4,11.36-3a12.4,12.4,0,0,1,8.08,9,11.21,11.21,0,0,1-2.58,10.73,13.15,13.15,0,0,1-9.39,3.51Zm-6.85-15a2.22,2.22,0,0,1-.23,2.12c-1.77,2.57-1.66,4.63.34,6.3,3.17,2.64,9.77,3.12,13-.08a6.82,6.82,0,0,0,1.41-6.52,7.92,7.92,0,0,0-5-5.81c-1.7-.48-4.89.49-7.52,2.34A13.43,13.43,0,0,0,23,340.33Z"/><path d="M28.56,389.41a2.23,2.23,0,0,1-2.23-2.23c0-.53,0-1.05,0-1.58,0-.05,0-.11,0-.17s0-.12,0-.17c0-1.2,0-2.4,0-3.59A151.81,151.81,0,0,0,26,365.44a2.23,2.23,0,0,1,4.44-.43,156.39,156.39,0,0,1,.41,16.71c0,1.2,0,2.4,0,3.6h0a4.11,4.11,0,0,1-.24,2.85,2.26,2.26,0,0,1-2,1.23Z"/><path d="M28.56,382.79a2.27,2.27,0,0,1-1.62-.7c-9.52-2.47-13.95-5.15-14.34-8.68-.41-3.69,3.81-5.84,5.2-6.54,1.16-.6,3.66-1.11,7.26,2.07a21.16,21.16,0,0,1,4.72,6.2c3-3.33,7.45-7.05,10.42-8.22a4.63,4.63,0,0,1,4.2,0c5.66,3.4,5,6.72,4,8.39-2.63,4.79-15.17,7.49-18.14,6.63a2.27,2.27,0,0,1-1.74.83ZM42.32,370.9c-1.66.2-5.77,3.66-8.65,6.62,3.77-.61,10.31-2.58,10.91-4.44,0-.13-.24-.92-2.26-2.18ZM17,373s.59,1.81,8.77,4.19a15.8,15.8,0,0,0-1.67-2.66c-1.95-2.56-3.8-3.61-4.38-3.61C17.28,372.14,17,372.94,17,373Z"/><path class="cls-17" d="M232.06,401.93A15.8,15.8,0,0,0,225.71,389c-2.91-2.16-6.75-2.22-10.2-1.24-7.6,0-15.09,5.78-18.56,13A19.08,19.08,0,0,0,195.06,412a10.84,10.84,0,0,0-1.3,3.94c-.9,6.68,7.07,8.79,11.54,9.39a14.8,14.8,0,0,0,5.85-.41c.2.11.39.22.6.32a11.15,11.15,0,0,0,12.52-2.34A18.5,18.5,0,0,0,228,419.1a21.07,21.07,0,0,0,3.74-14A25.45,25.45,0,0,0,232.06,401.93Z"/><path class="cls-14" d="M207.83,437.1a16.5,16.5,0,0,0-12.25-6.2c-4.16-.12-3.86,6.22.24,6.42,3.17.14,5.51,3.14,8.2,4.42A3.13,3.13,0,0,0,207.83,437.1Z"/><path class="cls-14" d="M217.77,432.21a5.8,5.8,0,0,0-5.45,1.29,6.83,6.83,0,0,0-2.09,3.94,3.24,3.24,0,0,0,2.11,4,3.2,3.2,0,0,0,4-2.11c0-.15.09-.29.14-.43l.11-.21,0,0c0,.08,0,0,0,0l1.15-.44a3.13,3.13,0,0,0,2.28-3A3,3,0,0,0,217.77,432.21Z"/><path class="cls-16" d="M217.21,407c-.27-.19-.55-.37-.82-.54a9.19,9.19,0,0,0-4-4,7.54,7.54,0,0,0-.82-.36,7.45,7.45,0,0,0-.91-.3,13.13,13.13,0,0,0-2.43-.41,8.12,8.12,0,0,0-5.11,1.51,7.3,7.3,0,0,0-2.56,7.16,10.35,10.35,0,0,0,4.75,6.84,7.88,7.88,0,0,0,4.28,1.13c3.58,0,6.4-2.3,8.45-5A4.37,4.37,0,0,0,217.21,407Z"/><path d="M216.42,430a9,9,0,0,1-4.95-1.28,5.18,5.18,0,0,1-1.37-1.35c-2.68,1.71-6.42,1.6-9.52.28-3.62-1.54-6.85-4.95-6.58-9.22a5.7,5.7,0,0,1-5.27-3.82c-1.35-3.87,1-9.45,3.67-12.2a4.66,4.66,0,0,1-.67-3.57c.62-3.08,4.09-6.08,7.6-6.55a6.87,6.87,0,0,1,1.63,0,7.75,7.75,0,0,1,3.93-6.21,11.29,11.29,0,0,1,12.32.77,9.85,9.85,0,0,1,4.32-3.3,10.93,10.93,0,0,1,8.81.26c3.87,1.69,5.14,4.27,5.53,6.15.88,4.26-1.76,8.6-3.74,11.15,3.53,2,6.56,5.3,6.56,9.31,0,6-4.77,7.38-8.25,8.38l-1.39.41a9.4,9.4,0,0,1-4.54,8.38,15.05,15.05,0,0,1-8.09,2.43Zm-5.32-8a1.84,1.84,0,0,1,.57.09,1.74,1.74,0,0,1,1.14,2,1.47,1.47,0,0,0,.61,1.75c1.74,1.17,6,.93,9.17-1.16a5.91,5.91,0,0,0,2.86-6.31,1.73,1.73,0,0,1,1.06-2c1-.39,2-.68,3-1,3.77-1.08,5.74-1.8,5.74-5,0-3-3.27-5.85-6.5-7.09a1.74,1.74,0,0,1-1.08-1.23,1.81,1.81,0,0,1,.43-1.59c2.44-2.58,5.05-6.71,4.4-9.85-.33-1.58-1.49-2.79-3.55-3.68l-.08,0a7.44,7.44,0,0,0-6-.16,6,6,0,0,0-3.55,3.54,1.76,1.76,0,0,1-1.38,1.14,1.74,1.74,0,0,1-1.65-.67,7.58,7.58,0,0,0-9.57-1.72c-1.3.78-3.24,2.62-1.61,6.2a1.74,1.74,0,0,1-3.14,1.5,1.83,1.83,0,0,0-2.14-1c-2,.27-4.32,2.18-4.64,3.78a1.19,1.19,0,0,0,.26,1.11,3.14,3.14,0,0,1,2.78.92,3.14,3.14,0,0,1-3,3c-1.45,1.3-3.69,5.16-3.33,8.2.09.79.31,2.63,4.09,2.21a1.75,1.75,0,0,1,1.83,2.32c-1.16,3.26,1.26,6,4.16,7.2,2.72,1.16,6.27,1.19,7.6-1.49a1.76,1.76,0,0,1,1.56-1Z"/><path d="M212.23,419.62c-5,0-10.31-1.92-12.41-5.63-1.43-2.19-2.11-6.43.38-8.5a1.69,1.69,0,0,1,.72-.36c3-4.72,8.52-9.15,14.69-7.61a11.78,11.78,0,0,1,8.31,10,10.16,10.16,0,0,1-4.87,10.6,14.8,14.8,0,0,1-6.82,1.49Zm-10.13-9.23a4.69,4.69,0,0,0,.66,1.73l.07.12c2.14,3.86,10.49,5,14.53,2.85a6.79,6.79,0,0,0,3.11-7.09c-.39-2.9-2.31-6.22-5.72-7.1-5.4-1.36-10.65,4.35-12.35,9a1.63,1.63,0,0,1-.3.51Z"/><path d="M211.65,448.84a1.68,1.68,0,0,1-.72-.16c-.92-.41-3.07-1.39-2.93-12.45.06-4.68.61-10.79,1.5-12.93a1.74,1.74,0,1,1,3.21,1.34c-1.34,3.22-1.78,18.91-.2,20.94a1.75,1.75,0,0,1-.86,3.26Z"/><path d="M209.74,442.31h0a1.78,1.78,0,0,1-1.41-.78h0c-3.63.1-10.25.25-12.67-3.13a5.41,5.41,0,0,1-.38-5.3,3.85,3.85,0,0,1,3.23-2.7c3.69-.42,8.7,4.57,11.2,7.38,4-5.17,6.81-7.45,9.16-7.36a3.28,3.28,0,0,1,2.72,1.65c2.13,3.47,1,5.74.09,6.78-2.31,2.74-7.75,3.27-10.82,3.11a1.79,1.79,0,0,1-1.07.36Zm8.84-8.41c-.38.08-1.81.63-5,4.5,2.17-.22,4.61-.77,5.43-1.88.15-.22.63-.86-.45-2.62ZM199,433.84h-.14c-.07,0-.19,0-.36.46-.52,1.38-.16,1.89,0,2.06.91,1.28,4.1,1.62,6.72,1.68-2.16-2.09-4.81-4.21-6.18-4.21Z"/><path class="cls-18" d="M389.09,353.06a15.51,15.51,0,0,0-2.31-.2c-3.12-1.91-7.19-1.88-10.63-.6a18.26,18.26,0,0,0-7.11,4.83c-4.11-.26-8.21,2.44-10.87,5.47-3.65,4.17-5.07,10.06-2.7,15.2,3.47,7.53,12,12.2,20.4,13.16a9.3,9.3,0,0,0,8,3.23,11.16,11.16,0,0,0,6.67-3.81,16.11,16.11,0,0,0,2.62-4.33,1.83,1.83,0,0,0,.14-.28,17.35,17.35,0,0,0,6.51-6.17C406,369.22,401.61,355.23,389.09,353.06Zm3.54,20.14a6.83,6.83,0,0,0-1.69-1,11.42,11.42,0,0,0,.7-1.54,15.39,15.39,0,0,0,.89-5.36c.14.24.27.5.4.78A8.68,8.68,0,0,1,392.63,373.2Z"/><path class="cls-14" d="M375.33,405.54l-.71.22c-.39.72-.92.74-1.56.05a16.7,16.7,0,0,0-1.91-.5,6.26,6.26,0,0,1-1.13-.38,4.38,4.38,0,0,0-4.11-1.06c-2.08.57-2.81,2.21-3.14,4.14-.81,4.81,2.94,5.51,5.61,6.18a8.91,8.91,0,0,0,3.88,0,25.79,25.79,0,0,0,2.6-1.07c1-.33,1.94-.59,2.92-.95C381.53,410.74,379.12,404.31,375.33,405.54Z"/><path class="cls-14" d="M402.83,405.18a4.89,4.89,0,0,0-.83-1.66,5.22,5.22,0,0,0-5.54-2.59c-4.27,1.05-6.81,4-9.87,6.95-3.7,3.52.72,9.46,5,6.33a25.7,25.7,0,0,1,4.73-2.7,11.19,11.19,0,0,1,3.19-.47,4.69,4.69,0,0,0,3.38-3.41A4.84,4.84,0,0,0,402.83,405.18Z"/><path class="cls-16" d="M389.38,366.5c-4.43-2.75-9.38-3.59-14.51-3.66-3.28,0-6.31,3.7-5.79,6.88.2,1.24.45,2.55.79,3.83a10.1,10.1,0,0,0-.06,1.12c0,4.61,4.77,7.05,8.59,8a5.87,5.87,0,0,0,4.74-.79,4.48,4.48,0,0,0,4.24.37c3.66-1.64,6.37-4.13,6.67-8.28C394.3,370.53,392.07,368.17,389.38,366.5Z"/><path d="M379.48,384.8a10.66,10.66,0,0,1-4.77-1.15c-4.31-2.14-7.33-7.06-7-11.43a7.44,7.44,0,0,1,2.62-5.29c1.89-3.86,5.11-6.06,8.95-6,4.82.07,9.78,3.73,11.54,8.52,1.61,4.37.34,8.79-3.47,12.13a12,12,0,0,1-7.85,3.19Zm-6.79-13.92a3.18,3.18,0,0,0-.55,1.65c-.18,2.59,1.86,5.79,4.56,7.13,1.76.88,4.53,1.35,7.7-1.41s2.88-5.4,2.21-7.23c-1.14-3.1-4.4-5.56-7.42-5.6a4.69,4.69,0,0,0-3.13,1.09,1.22,1.22,0,0,1,.07.17,2.23,2.23,0,0,1-1.41,2.82,6.62,6.62,0,0,0-.84.36,2.32,2.32,0,0,1-1.19,1Z"/><path d="M381.31,400.69a18,18,0,0,1-8.36-1.87,9.1,9.1,0,0,1-4.89-6,10.59,10.59,0,0,1-9.49-2.76c-4.25-3.88-6-10.39-4.12-15.16a8.91,8.91,0,0,1,5.86-5.34c-2.14-3-3.76-6.71-1.53-11.16a.54.54,0,0,1,.07-.13,11.7,11.7,0,0,1,10.37-5.37l.18,0c3.13-3.93,11.56-6.44,11.67-6.47l.17-.05c4.19-.83,7.58-.31,10.08,1.56,2.21,1.65,3.63,4.29,4.22,7.86a8.64,8.64,0,0,1,1.84,0c5.63.45,11.82,6.14,13.24,10.57,2,5.53-1,12.3-4.83,16.56-2.83,3.13-6.06,5-9.24,5.35a9.11,9.11,0,0,1-3,8.34c-2.87,2.67-7.62,4.11-12.27,4.11Zm-11.13-13.23a2.22,2.22,0,0,1,2.2,2.58c-.33,2.12.54,3.71,2.66,4.84,4.44,2.36,12.12,1.58,15.51-1.57,1.83-1.7,2.13-3.84.94-6.55a2.22,2.22,0,0,1,.33-2.34,2.25,2.25,0,0,1,2.25-.73c2.55.64,5.69-.78,8.41-3.79,3.44-3.82,5.09-8.91,3.93-12.1l0-.1c-.92-2.95-5.72-7.2-9.36-7.49a3.35,3.35,0,0,0-1.48.16,5.16,5.16,0,0,1-2.76,2.74,2.23,2.23,0,0,1-3-3,8.64,8.64,0,0,1,1.53-2.19s0-.06,0-.1c-.27-3.08-1.17-5.21-2.65-6.32s-3.6-1.33-6.44-.77a32.28,32.28,0,0,0-8.53,4.11,7.34,7.34,0,0,1,1.73,2.69,2.25,2.25,0,0,1-1.31,2.88,2.28,2.28,0,0,1-2-.21,2.4,2.4,0,0,1-.88-.26,5.5,5.5,0,0,1-2.68-2.64h-.08a7.38,7.38,0,0,0-5.73,3.13c-1.56,3.2.35,5.72,3.44,9.19l.09.11a2.24,2.24,0,0,1,.36,2.42,2.17,2.17,0,0,1-2.07,1.29c-3.13-.07-5.13,1-6,3.08-1.21,3,.13,7.61,3,10.21a6.29,6.29,0,0,0,7.59,1,2.28,2.28,0,0,1,1-.24Z"/><path d="M382.38,429.2a2.23,2.23,0,0,1-2.23-2.23c0-2.9.18-5.86.37-9,.39-6.26.79-12.73-.33-18.82a2.23,2.23,0,0,1,4.38-.81c1.22,6.62.81,13.38.4,19.91-.18,3.07-.36,6-.36,8.72a2.23,2.23,0,0,1-2.23,2.23Z"/><path d="M384.12,419.79c-5.67,0-19.43-4.23-20.34-12.43-.15-1.42-.6-5.7,2.41-7,3.17-1.4,7.3,1.38,15.25,10.27l.72.81a5.57,5.57,0,0,1,.43.39c3-4.29,9-10.37,13.21-9.68,1.41.23,3.79,1.32,3.79,6,0,2.18-1.25,4.3-3.62,6.11a18.47,18.47,0,0,1-9.64,3.6,2.23,2.23,0,0,1-2.21,1.92ZM368.2,404.56a9.14,9.14,0,0,0,0,2.32c.36,3.24,5.81,6.17,10.68,7.57l-.79-.87c-6.26-7-8.9-8.66-9.91-9Zm26.72,2c-1.59.11-5.66,3.74-8,6.84a14.48,14.48,0,0,0,6.38-2.63c1.17-.9,1.87-1.86,1.87-2.57a4.63,4.63,0,0,0-.21-1.64Z"/></svg>